<?xml version="1.0" encoding="UTF-8" standalone="no"?>
<!-- Created with Inkscape (http://www.inkscape.org/) -->

<svg
   xmlns:osb="http://www.openswatchbook.org/uri/2009/osb"
   xmlns:dc="http://purl.org/dc/elements/1.1/"
   xmlns:cc="http://creativecommons.org/ns#"
   xmlns:rdf="http://www.w3.org/1999/02/22-rdf-syntax-ns#"
   xmlns:svg="http://www.w3.org/2000/svg"
   xmlns="http://www.w3.org/2000/svg"
   xmlns:sodipodi="http://sodipodi.sourceforge.net/DTD/sodipodi-0.dtd"
   xmlns:inkscape="http://www.inkscape.org/namespaces/inkscape"
   width="226.28851mm"
   height="136.26355mm"
   viewBox="0 0 226.28851 136.26355"
   version="1.1"
   id="svg8"
   sodipodi:docname="pipeline.svg"
   inkscape:version="0.92.4 5da689c313, 2019-01-14">
  <defs
     id="defs2">
    <linearGradient
       id="linearGradient13055"
       osb:paint="solid">
      <stop
         style="stop-color:#000000;stop-opacity:1;"
         offset="0"
         id="stop13053" />
    </linearGradient>
    <linearGradient
       inkscape:collect="always"
       id="linearGradient13043"
       osb:paint="gradient">
      <stop
         style="stop-color:#000000;stop-opacity:1;"
         offset="0"
         id="stop13039" />
      <stop
         style="stop-color:#000000;stop-opacity:0;"
         offset="1"
         id="stop13041" />
    </linearGradient>
    <marker
       inkscape:stockid="Arrow2Mend"
       orient="auto"
       refY="0"
       refX="0"
       id="Arrow2Mend"
       style="overflow:visible"
       inkscape:isstock="true">
      <path
         id="path1207"
         style="fill:#000000;fill-opacity:1;fill-rule:evenodd;stroke:#000000;stroke-width:0.625;stroke-linejoin:round;stroke-opacity:1"
         d="M 8.7185878,4.0337352 -2.2072895,0.01601326 8.7185884,-4.0017078 c -1.7454984,2.3720609 -1.7354408,5.6174519 -6e-7,8.035443 z"
         transform="scale(-0.6)"
         inkscape:connector-curvature="0" />
    </marker>
    <marker
       inkscape:stockid="Arrow2Lstart"
       orient="auto"
       refY="0"
       refX="0"
       id="Arrow2Lstart"
       style="overflow:visible"
       inkscape:isstock="true">
      <path
         id="path1198"
         style="fill:#000000;fill-opacity:1;fill-rule:evenodd;stroke:#000000;stroke-width:0.625;stroke-linejoin:round;stroke-opacity:1"
         d="M 8.7185878,4.0337352 -2.2072895,0.01601326 8.7185884,-4.0017078 c -1.7454984,2.3720609 -1.7354408,5.6174519 -6e-7,8.035443 z"
         transform="matrix(1.1,0,0,1.1,1.1,0)"
         inkscape:connector-curvature="0" />
    </marker>
    <marker
       inkscape:stockid="Arrow1Lend"
       orient="auto"
       refY="0"
       refX="0"
       id="marker4182"
       style="overflow:visible"
       inkscape:isstock="true">
      <path
         id="path4180"
         d="M 0,0 5,-5 -12.5,0 5,5 Z"
         style="fill:#000000;fill-opacity:1;fill-rule:evenodd;stroke:#000000;stroke-width:1.00000003pt;stroke-opacity:1"
         transform="matrix(-0.8,0,0,-0.8,-10,0)"
         inkscape:connector-curvature="0" />
    </marker>
    <marker
       inkscape:stockid="Arrow1Lstart"
       orient="auto"
       refY="0"
       refX="0"
       id="marker4118"
       style="overflow:visible"
       inkscape:isstock="true">
      <path
         id="path4116"
         d="M 0,0 5,-5 -12.5,0 5,5 Z"
         style="fill:#000000;fill-opacity:1;fill-rule:evenodd;stroke:#000000;stroke-width:1.00000003pt;stroke-opacity:1"
         transform="matrix(0.8,0,0,0.8,10,0)"
         inkscape:connector-curvature="0" />
    </marker>
    <inkscape:path-effect
       effect="powerstroke"
       id="path-effect4114"
       is_visible="true"
       offset_points="0,0.13229166"
       sort_points="true"
       interpolator_type="CubicBezierJohan"
       interpolator_beta="0.2"
       start_linecap_type="zerowidth"
       linejoin_type="extrp_arc"
       miter_limit="4"
       end_linecap_type="zerowidth" />
    <inkscape:path-effect
       effect="powerstroke"
       id="path-effect4110"
       is_visible="true"
       offset_points="0,0.13229166"
       sort_points="true"
       interpolator_type="CubicBezierJohan"
       interpolator_beta="0.2"
       start_linecap_type="zerowidth"
       linejoin_type="extrp_arc"
       miter_limit="4"
       end_linecap_type="zerowidth" />
    <linearGradient
       id="linearGradient2658"
       osb:paint="solid">
      <stop
         style="stop-color:#000000;stop-opacity:1;"
         offset="0"
         id="stop2656" />
    </linearGradient>
    <inkscape:path-effect
       effect="powerstroke"
       id="path-effect2638"
       is_visible="true"
       offset_points="0,0.13229166"
       sort_points="true"
       interpolator_type="CubicBezierJohan"
       interpolator_beta="0.20253165"
       start_linecap_type="zerowidth"
       linejoin_type="extrp_arc"
       miter_limit="4"
       end_linecap_type="zerowidth" />
    <inkscape:path-effect
       effect="powerstroke"
       id="path-effect2622"
       is_visible="true"
       offset_points="0,0.13229166"
       sort_points="true"
       interpolator_type="CubicBezierJohan"
       interpolator_beta="0.2"
       start_linecap_type="zerowidth"
       linejoin_type="extrp_arc"
       miter_limit="4"
       end_linecap_type="zerowidth" />
    <inkscape:path-effect
       effect="powerstroke"
       id="path-effect2618"
       is_visible="true"
       offset_points="0,0.13229166"
       sort_points="true"
       interpolator_type="CubicBezierJohan"
       interpolator_beta="0.2"
       start_linecap_type="zerowidth"
       linejoin_type="extrp_arc"
       miter_limit="4"
       end_linecap_type="zerowidth" />
    <marker
       inkscape:stockid="Arrow1Lstart"
       orient="auto"
       refY="0"
       refX="0"
       id="marker1942"
       style="overflow:visible"
       inkscape:isstock="true">
      <path
         id="path1940"
         d="M 0,0 5,-5 -12.5,0 5,5 Z"
         style="fill:#000000;fill-opacity:1;fill-rule:evenodd;stroke:none;stroke-width:1.00000003pt;stroke-opacity:1"
         transform="matrix(0.8,0,0,0.8,10,0)"
         inkscape:connector-curvature="0" />
    </marker>
    <inkscape:path-effect
       effect="powerstroke"
       id="path-effect1938"
       is_visible="true"
       offset_points="0,0.13229166"
       sort_points="true"
       interpolator_type="CubicBezierJohan"
       interpolator_beta="0.2"
       start_linecap_type="zerowidth"
       linejoin_type="extrp_arc"
       miter_limit="4"
       end_linecap_type="zerowidth" />
    <inkscape:path-effect
       effect="powerstroke"
       id="path-effect1934"
       is_visible="true"
       offset_points="0,0.13229166"
       sort_points="true"
       interpolator_type="CubicBezierJohan"
       interpolator_beta="0.2"
       start_linecap_type="zerowidth"
       linejoin_type="extrp_arc"
       miter_limit="4"
       end_linecap_type="zerowidth" />
    <inkscape:path-effect
       effect="powerstroke"
       id="path-effect1930"
       is_visible="true"
       offset_points="0,0.13229166"
       sort_points="true"
       interpolator_type="CubicBezierJohan"
       interpolator_beta="0.2"
       start_linecap_type="zerowidth"
       linejoin_type="extrp_arc"
       miter_limit="4"
       end_linecap_type="zerowidth" />
    <marker
       inkscape:stockid="Arrow1Lstart"
       orient="auto"
       refY="0"
       refX="0"
       id="marker1704"
       style="overflow:visible"
       inkscape:isstock="true">
      <path
         id="path1702"
         d="M 0,0 5,-5 -12.5,0 5,5 Z"
         style="fill:#000000;fill-opacity:1;fill-rule:evenodd;stroke:none;stroke-width:1.00000003pt;stroke-opacity:1"
         transform="matrix(0.8,0,0,0.8,10,0)"
         inkscape:connector-curvature="0" />
    </marker>
    <marker
       inkscape:stockid="Arrow1Lstart"
       orient="auto"
       refY="0"
       refX="0"
       id="marker1658"
       style="overflow:visible"
       inkscape:isstock="true">
      <path
         id="path1656"
         d="M 0,0 5,-5 -12.5,0 5,5 Z"
         style="fill:#000000;fill-opacity:1;fill-rule:evenodd;stroke:none;stroke-width:1.00000003pt;stroke-opacity:1"
         transform="matrix(0.8,0,0,0.8,10,0)"
         inkscape:connector-curvature="0" />
    </marker>
    <inkscape:path-effect
       effect="powerstroke"
       id="path-effect1642"
       is_visible="true"
       offset_points="0,0.13229166"
       sort_points="true"
       interpolator_type="CubicBezierJohan"
       interpolator_beta="0.2"
       start_linecap_type="zerowidth"
       linejoin_type="extrp_arc"
       miter_limit="4"
       end_linecap_type="zerowidth" />
    <marker
       inkscape:stockid="Arrow1Lend"
       orient="auto"
       refY="0"
       refX="0"
       id="marker1524"
       style="overflow:visible"
       inkscape:isstock="true">
      <path
         id="path1522"
         d="M 0,0 5,-5 -12.5,0 5,5 Z"
         style="fill:#000000;fill-opacity:1;fill-rule:evenodd;stroke:#000000;stroke-width:1.00000003pt;stroke-opacity:1"
         transform="matrix(-0.8,0,0,-0.8,-10,0)"
         inkscape:connector-curvature="0" />
    </marker>
    <marker
       inkscape:stockid="Arrow1Lstart"
       orient="auto"
       refY="0"
       refX="0"
       id="marker1490"
       style="overflow:visible"
       inkscape:isstock="true">
      <path
         id="path1488"
         d="M 0,0 5,-5 -12.5,0 5,5 Z"
         style="fill:#000000;fill-opacity:1;fill-rule:evenodd;stroke:none;stroke-width:1.00000003pt;stroke-opacity:1"
         transform="matrix(0.8,0,0,0.8,10,0)"
         inkscape:connector-curvature="0" />
    </marker>
    <marker
       inkscape:stockid="Arrow1Lstart"
       orient="auto"
       refY="0"
       refX="0"
       id="Arrow1Lstart"
       style="overflow:visible"
       inkscape:isstock="true">
      <path
         id="path1180"
         d="M 0,0 5,-5 -12.5,0 5,5 Z"
         style="fill:#000000;fill-opacity:1;fill-rule:evenodd;stroke:none;stroke-width:1.00000003pt;stroke-opacity:1"
         transform="matrix(0.8,0,0,0.8,10,0)"
         inkscape:connector-curvature="0" />
    </marker>
    <marker
       inkscape:stockid="Arrow1Lend"
       orient="auto"
       refY="0"
       refX="0"
       id="Arrow1Lend"
       style="overflow:visible"
       inkscape:isstock="true">
      <path
         id="path1183"
         d="M 0,0 5,-5 -12.5,0 5,5 Z"
         style="fill:#000000;fill-opacity:1;fill-rule:evenodd;stroke:#000000;stroke-width:1.00000003pt;stroke-opacity:1"
         transform="matrix(-0.8,0,0,-0.8,-10,0)"
         inkscape:connector-curvature="0" />
    </marker>
    <inkscape:path-effect
       effect="powerstroke"
       id="path-effect1178"
       is_visible="true"
       offset_points="0,0.13229166"
       sort_points="true"
       interpolator_type="CubicBezierJohan"
       interpolator_beta="0.2"
       start_linecap_type="zerowidth"
       linejoin_type="extrp_arc"
       miter_limit="4"
       end_linecap_type="zerowidth" />
    <marker
       inkscape:stockid="Arrow2Mend"
       orient="auto"
       refY="0"
       refX="0"
       id="Arrow2Mend-5"
       style="overflow:visible"
       inkscape:isstock="true">
      <path
         inkscape:connector-curvature="0"
         id="path1207-6"
         style="fill:#000000;fill-opacity:1;fill-rule:evenodd;stroke:#000000;stroke-width:0.625;stroke-linejoin:round;stroke-opacity:1"
         d="M 8.7185878,4.0337352 -2.2072895,0.01601326 8.7185884,-4.0017078 c -1.7454984,2.3720609 -1.7354408,5.6174519 -6e-7,8.035443 z"
         transform="scale(-0.6)" />
    </marker>
    <marker
       inkscape:stockid="Arrow2Mend"
       orient="auto"
       refY="0"
       refX="0"
       id="Arrow2Mend-8"
       style="overflow:visible"
       inkscape:isstock="true">
      <path
         inkscape:connector-curvature="0"
         id="path1207-7"
         style="fill:#000000;fill-opacity:1;fill-rule:evenodd;stroke:#000000;stroke-width:0.625;stroke-linejoin:round;stroke-opacity:1"
         d="M 8.7185878,4.0337352 -2.2072895,0.01601326 8.7185884,-4.0017078 c -1.7454984,2.3720609 -1.7354408,5.6174519 -6e-7,8.035443 z"
         transform="scale(-0.6)" />
    </marker>
    <marker
       inkscape:stockid="Arrow2Mend"
       orient="auto"
       refY="0"
       refX="0"
       id="Arrow2Mend-8-8"
       style="overflow:visible"
       inkscape:isstock="true">
      <path
         inkscape:connector-curvature="0"
         id="path1207-7-2"
         style="fill:#000000;fill-opacity:1;fill-rule:evenodd;stroke:#000000;stroke-width:0.625;stroke-linejoin:round;stroke-opacity:1"
         d="M 8.7185878,4.0337352 -2.2072895,0.01601326 8.7185884,-4.0017078 c -1.7454984,2.3720609 -1.7354408,5.6174519 -6e-7,8.035443 z"
         transform="scale(-0.6)" />
    </marker>
    <marker
       inkscape:stockid="Arrow2Mend"
       orient="auto"
       refY="0"
       refX="0"
       id="Arrow2Mend-5-9"
       style="overflow:visible"
       inkscape:isstock="true">
      <path
         inkscape:connector-curvature="0"
         id="path1207-6-6"
         style="fill:#000000;fill-opacity:1;fill-rule:evenodd;stroke:#000000;stroke-width:0.625;stroke-linejoin:round;stroke-opacity:1"
         d="M 8.7185878,4.0337352 -2.2072895,0.01601326 8.7185884,-4.0017078 c -1.7454984,2.3720609 -1.7354408,5.6174519 -6e-7,8.035443 z"
         transform="scale(-0.6)" />
    </marker>
    <marker
       inkscape:stockid="Arrow2Mend"
       orient="auto"
       refY="0"
       refX="0"
       id="Arrow2Mend-5-9-2"
       style="overflow:visible"
       inkscape:isstock="true">
      <path
         inkscape:connector-curvature="0"
         id="path1207-6-6-7"
         style="fill:#000000;fill-opacity:1;fill-rule:evenodd;stroke:#000000;stroke-width:0.625;stroke-linejoin:round;stroke-opacity:1"
         d="M 8.7185878,4.0337352 -2.2072895,0.01601326 8.7185884,-4.0017078 c -1.7454984,2.3720609 -1.7354408,5.6174519 -6e-7,8.035443 z"
         transform="scale(-0.6)" />
    </marker>
    <marker
       inkscape:stockid="Arrow2Mend"
       orient="auto"
       refY="0"
       refX="0"
       id="Arrow2Mend-5-9-2-1"
       style="overflow:visible"
       inkscape:isstock="true">
      <path
         inkscape:connector-curvature="0"
         id="path1207-6-6-7-3"
         style="fill:#000000;fill-opacity:1;fill-rule:evenodd;stroke:#000000;stroke-width:0.625;stroke-linejoin:round;stroke-opacity:1"
         d="M 8.7185878,4.0337352 -2.2072895,0.01601326 8.7185884,-4.0017078 c -1.7454984,2.3720609 -1.7354408,5.6174519 -6e-7,8.035443 z"
         transform="scale(-0.6)" />
    </marker>
    <marker
       inkscape:stockid="Arrow2Mend"
       orient="auto"
       refY="0"
       refX="0"
       id="Arrow2Mend-5-9-2-1-1"
       style="overflow:visible"
       inkscape:isstock="true">
      <path
         inkscape:connector-curvature="0"
         id="path1207-6-6-7-3-5"
         style="fill:#000000;fill-opacity:1;fill-rule:evenodd;stroke:#000000;stroke-width:0.625;stroke-linejoin:round;stroke-opacity:1"
         d="M 8.7185878,4.0337352 -2.2072895,0.01601326 8.7185884,-4.0017078 c -1.7454984,2.3720609 -1.7354408,5.6174519 -6e-7,8.035443 z"
         transform="scale(-0.6)" />
    </marker>
    <marker
       inkscape:stockid="Arrow2Mend"
       orient="auto"
       refY="0"
       refX="0"
       id="Arrow2Mend-5-9-2-1-1-9"
       style="overflow:visible"
       inkscape:isstock="true">
      <path
         inkscape:connector-curvature="0"
         id="path1207-6-6-7-3-5-1"
         style="fill:#000000;fill-opacity:1;fill-rule:evenodd;stroke:#000000;stroke-width:0.625;stroke-linejoin:round;stroke-opacity:1"
         d="M 8.7185878,4.0337352 -2.2072895,0.01601326 8.7185884,-4.0017078 c -1.7454984,2.3720609 -1.7354408,5.6174519 -6e-7,8.035443 z"
         transform="scale(-0.6)" />
    </marker>
    <marker
       inkscape:stockid="Arrow2Mend"
       orient="auto"
       refY="0"
       refX="0"
       id="Arrow2Mend-5-9-2-1-4"
       style="overflow:visible"
       inkscape:isstock="true">
      <path
         inkscape:connector-curvature="0"
         id="path1207-6-6-7-3-9"
         style="fill:#000000;fill-opacity:1;fill-rule:evenodd;stroke:#000000;stroke-width:0.625;stroke-linejoin:round;stroke-opacity:1"
         d="M 8.7185878,4.0337352 -2.2072895,0.01601326 8.7185884,-4.0017078 c -1.7454984,2.3720609 -1.7354408,5.6174519 -6e-7,8.035443 z"
         transform="scale(-0.6)" />
    </marker>
    <marker
       inkscape:stockid="Arrow2Mend"
       orient="auto"
       refY="0"
       refX="0"
       id="Arrow2Mend-5-9-2-10"
       style="overflow:visible"
       inkscape:isstock="true">
      <path
         inkscape:connector-curvature="0"
         id="path1207-6-6-7-7"
         style="fill:#000000;fill-opacity:1;fill-rule:evenodd;stroke:#000000;stroke-width:0.625;stroke-linejoin:round;stroke-opacity:1"
         d="M 8.7185878,4.0337352 -2.2072895,0.01601326 8.7185884,-4.0017078 c -1.7454984,2.3720609 -1.7354408,5.6174519 -6e-7,8.035443 z"
         transform="scale(-0.6)" />
    </marker>
    <marker
       inkscape:stockid="Arrow2Mend"
       orient="auto"
       refY="0"
       refX="0"
       id="Arrow2Mend-5-9-5"
       style="overflow:visible"
       inkscape:isstock="true">
      <path
         inkscape:connector-curvature="0"
         id="path1207-6-6-8"
         style="fill:#000000;fill-opacity:1;fill-rule:evenodd;stroke:#000000;stroke-width:0.625;stroke-linejoin:round;stroke-opacity:1"
         d="M 8.7185878,4.0337352 -2.2072895,0.01601326 8.7185884,-4.0017078 c -1.7454984,2.3720609 -1.7354408,5.6174519 -6e-7,8.035443 z"
         transform="scale(-0.6)" />
    </marker>
    <marker
       inkscape:stockid="Arrow2Mend"
       orient="auto"
       refY="0"
       refX="0"
       id="Arrow2Mend-5-7"
       style="overflow:visible"
       inkscape:isstock="true">
      <path
         inkscape:connector-curvature="0"
         id="path1207-6-0"
         style="fill:#000000;fill-opacity:1;fill-rule:evenodd;stroke:#000000;stroke-width:0.625;stroke-linejoin:round;stroke-opacity:1"
         d="M 8.7185878,4.0337352 -2.2072895,0.01601326 8.7185884,-4.0017078 c -1.7454984,2.3720609 -1.7354408,5.6174519 -6e-7,8.035443 z"
         transform="scale(-0.6)" />
    </marker>
    <marker
       inkscape:stockid="Arrow2Mend"
       orient="auto"
       refY="0"
       refX="0"
       id="Arrow2Mend-4"
       style="overflow:visible"
       inkscape:isstock="true">
      <path
         inkscape:connector-curvature="0"
         id="path1207-8"
         style="fill:#000000;fill-opacity:1;fill-rule:evenodd;stroke:#000000;stroke-width:0.625;stroke-linejoin:round;stroke-opacity:1"
         d="M 8.7185878,4.0337352 -2.2072895,0.01601326 8.7185884,-4.0017078 c -1.7454984,2.3720609 -1.7354408,5.6174519 -6e-7,8.035443 z"
         transform="scale(-0.6)" />
    </marker>
  </defs>
  <sodipodi:namedview
     id="base"
     pagecolor="#ffffff"
     bordercolor="#666666"
     borderopacity="1.0"
     inkscape:pageopacity="0.0"
     inkscape:pageshadow="2"
     inkscape:zoom="0.98994949"
     inkscape:cx="341.60305"
     inkscape:cy="261.50482"
     inkscape:document-units="mm"
     inkscape:current-layer="layer1"
     showgrid="false"
     inkscape:window-width="1918"
     inkscape:window-height="1178"
     inkscape:window-x="0"
     inkscape:window-y="20"
     inkscape:window-maximized="1"
     fit-margin-top="0"
     fit-margin-left="0"
     fit-margin-right="0"
     fit-margin-bottom="0"
     showguides="false" />
  <metadata
     id="metadata5">
    <rdf:RDF>
      <cc:Work
         rdf:about="">
        <dc:format>image/svg+xml</dc:format>
        <dc:type
           rdf:resource="http://purl.org/dc/dcmitype/StillImage" />
        <dc:title></dc:title>
      </cc:Work>
    </rdf:RDF>
  </metadata>
  <g
     inkscape:label="Layer 1"
     inkscape:groupmode="layer"
     id="layer1"
     transform="translate(-23.693143,-87.858783)">
    <g
       aria-label="SPoC"
       style="font-style:normal;font-variant:normal;font-weight:normal;font-stretch:normal;font-size:10.58333302px;line-height:1.25;font-family:sansita;-inkscape-font-specification:sansita;letter-spacing:0px;word-spacing:0px;fill:#000000;fill-opacity:1;stroke:none;stroke-width:0.26458332"
       id="text817" />
    <g
       aria-label="SPoC"
       style="font-style:normal;font-variant:normal;font-weight:normal;font-stretch:normal;font-size:10.58333302px;line-height:1.25;font-family:sansita;-inkscape-font-specification:sansita;letter-spacing:0px;word-spacing:0px;fill:#000000;fill-opacity:1;stroke:none;stroke-width:0.26458332"
       id="text817-3" />
    <g
       aria-label="Ridge
α=0.5"
       style="font-style:normal;font-variant:normal;font-weight:normal;font-stretch:normal;font-size:10.58333302px;line-height:1.25;font-family:sansita;-inkscape-font-specification:'sansita, Normal';font-variant-ligatures:normal;font-variant-caps:normal;font-variant-numeric:normal;font-feature-settings:normal;text-align:start;letter-spacing:0px;word-spacing:0px;writing-mode:lr-tb;text-anchor:start;fill:#000000;fill-opacity:1;stroke:none;stroke-width:0.26458332"
       id="text847" />
    <g
       aria-label="Ridge
α=0.05"
       style="font-style:normal;font-variant:normal;font-weight:normal;font-stretch:normal;font-size:10.58333302px;line-height:1.25;font-family:sansita;-inkscape-font-specification:'sansita, Normal';font-variant-ligatures:normal;font-variant-caps:normal;font-variant-numeric:normal;font-feature-settings:normal;text-align:start;letter-spacing:0px;word-spacing:0px;writing-mode:lr-tb;text-anchor:start;fill:#000000;fill-opacity:1;stroke:none;stroke-width:0.26458332"
       id="text847-5">
      <path
         id="path1116"
         style="stroke-width:0.26458332"
         d="m 121.61707,170.51695 h -3.75709 l -0.27516,3.69358 c 0.4445,-0.0847 0.92075,-0.14817 1.34408,-0.14817 1.09008,0 1.87325,0.35984 1.87325,1.32292 0,0.86783 -0.51858,1.37583 -1.40758,1.37583 -0.92075,0 -1.54517,-0.30691 -1.88384,-0.97366 -0.20108,0.0952 -0.26458,0.32808 -0.26458,0.55033 0,0.98425 1.00542,1.397 2.19075,1.397 1.54517,0 2.69875,-0.97367 2.69875,-2.3495 0,-1.524 -0.96308,-2.14842 -2.58233,-2.14842 -0.28575,0 -0.67734,0.0212 -0.96309,0.0529 l 0.127,-1.70392 h 2.97392 z m -7.52492,-0.21167 c -1.905,0 -2.46592,1.83092 -2.46592,3.73592 0,1.905 0.56092,3.69358 2.46592,3.69358 1.905,0 2.46592,-1.91558 2.46592,-3.82058 0,-1.905 -0.56092,-3.60892 -2.46592,-3.60892 z m 0,6.68867 c -1.02658,0 -1.13242,-1.524 -1.13242,-3.00567 0,-1.34408 0.10584,-2.94217 1.13242,-2.94217 1.016,0 1.13242,1.59809 1.13242,2.94217 0,1.48167 -0.10584,3.00567 -1.13242,3.00567 z m -4.1194,-0.61384 c -0.4445,0 -0.80433,0.22225 -0.80433,0.67734 0,0.43391 0.32808,0.65616 0.77258,0.65616 0.45509,0 0.81492,-0.22225 0.81492,-0.67733 0,-0.43392 -0.32808,-0.65617 -0.78317,-0.65617 z m -4.14883,-6.07483 c -1.905,0 -2.46591,1.83092 -2.46591,3.73592 0,1.905 0.56091,3.69358 2.46591,3.69358 1.905,0 2.46592,-1.91558 2.46592,-3.82058 0,-1.905 -0.56092,-3.60892 -2.46592,-3.60892 z m 0,6.68867 c -1.02658,0 -1.13241,-1.524 -1.13241,-3.00567 0,-1.34408 0.10583,-2.94217 1.13241,-2.94217 1.016,0 1.13242,1.59809 1.13242,2.94217 0,1.48167 -0.10583,3.00567 -1.13242,3.00567 z m -7.821246,-2.286 h 3.767666 c 0.32808,0 0.508,-0.20109 0.508,-0.52917 0,-0.13758 -0.0423,-0.254 -0.0952,-0.37042 h -3.767666 c -0.328083,0 -0.508,0.20109 -0.508,0.52917 0,0.13758 0.04233,0.254 0.09525,0.37042 z m 0,1.70391 h 3.767666 c 0.32808,0 0.508,-0.20108 0.508,-0.52916 0,-0.13759 -0.0423,-0.254 -0.0952,-0.37042 h -3.767666 c -0.328083,0 -0.508,0.20108 -0.508,0.52917 0,0.13758 0.04233,0.254 0.09525,0.37041 z m -3.376827,-1.60225 -0.227377,-1.19373 q -0.232544,-1.22473 -1.152384,-1.22473 -0.692464,0 -1.00769,0.56844 -0.397909,0.71313 -0.397909,1.65365 0,1.13688 0.387573,1.67948 0.392741,0.55294 1.018026,0.55294 0.692464,0 1.064535,-1.10071 z m 0.532267,-1.5813 0.511597,-1.51412 h 0.847493 l -1.059367,3.13676 0.206706,1.13171 q 0.04651,0.25322 0.227376,0.46509 0.211874,0.24805 0.377238,0.24805 h 0.454753 v 0.80615 h -0.568441 q -0.485758,0 -0.91984,-0.43408 -0.211874,-0.21705 -0.299724,-0.6718 -0.237711,0.57361 -0.72347,1.0232 -0.227376,0.21187 -0.966349,0.21187 -1.214396,0 -1.803507,-0.78548 -0.604615,-0.81132 -0.604615,-2.23242 0,-1.51929 0.656291,-2.23243 0.728638,-0.79581 1.751831,-0.79581 1.607137,0 1.912028,1.64331 z M 113.646,162.78053 c -0.26458,0.5715 -0.75142,0.91017 -1.37583,0.91017 -0.93134,0 -1.13242,-0.89959 -1.16417,-1.83092 0.13758,0.0106 0.41275,0.0212 0.58208,0.0212 1.31234,0 2.38125,-0.34925 2.38125,-1.66159 0,-1.016 -0.71966,-1.55575 -1.73566,-1.55575 -1.72509,0 -2.45534,1.3335 -2.45534,3.048 0,1.60867 0.66675,2.794 2.286,2.794 0.80434,0 1.72509,-0.46566 1.72509,-1.27 0,-0.1905 -0.0635,-0.37041 -0.24342,-0.45508 z m -1.48167,-3.51367 c 0.52917,0 0.75142,0.48684 0.75142,1.016 0,0.79375 -0.53975,1.06892 -1.3335,1.06892 -0.14817,0 -0.30692,-0.0106 -0.47625,-0.0317 0.0212,-0.91017 0.21167,-2.05317 1.05833,-2.05317 z m -5.50895,6.49817 c -0.48684,0 -0.74084,-0.24342 -0.74084,-0.73025 0,-0.15875 0.0318,-0.3175 0.0847,-0.47625 -0.10583,-0.0847 -0.30692,-0.11642 -0.43392,-0.11642 -0.49741,0 -0.8255,0.24342 -0.8255,0.74084 0,0.889 0.93134,1.2065 1.83092,1.2065 1.87325,0 2.26483,-1.31234 2.26483,-3.18559 v -4.45558 l -1.03716,0.11642 c -0.33867,-0.127 -0.6985,-0.20109 -1.06892,-0.20109 -1.55575,0 -2.30717,0.97367 -2.30717,2.52942 0,1.4605 0.53975,2.57175 2.00025,2.57175 0.49742,0 1.00542,-0.17992 1.29117,-0.59267 v 0.28575 c 0,1.04775 -0.0106,2.30717 -1.05833,2.30717 z m 1.016,-6.12775 v 2.18017 c 0,0.66675 -0.27517,1.23825 -0.93134,1.23825 -0.93133,0 -1.06891,-0.98425 -1.06891,-1.91559 0,-0.86783 0.14816,-1.8415 1.016,-1.8415 0.34925,0 0.68791,0.13759 0.98425,0.33867 z m -4.41689,3.76767 v -6.6675 l -1.16417,0.127 v 1.93675 c -0.28575,-0.0952 -0.62442,-0.13759 -0.92075,-0.13759 -1.693333,0 -2.370666,1.21709 -2.370666,2.89984 0,1.54516 0.508,2.94216 2.053166,2.94216 0.53975,0 1.11125,-0.23283 1.35467,-0.71966 0.0529,0.40216 0.34925,0.64558 0.75141,0.64558 0.26459,0 0.508,-0.10583 0.62442,-0.32808 -0.254,-0.13759 -0.32808,-0.39159 -0.32808,-0.6985 z m -1.16417,-3.77825 v 2.93158 c 0,0.65617 -0.27517,1.23825 -0.92075,1.23825 -0.9525,0 -1.10067,-1.3335 -1.10067,-2.286 0,-0.97367 0.0741,-2.21192 1.04775,-2.21192 0.34925,0 0.67734,0.127 0.97367,0.32809 z m -4.922737,-2.97392 c -0.4445,0 -0.804333,0.22225 -0.804333,0.67733 0,0.43392 0.328083,0.65617 0.772583,0.65617 0.455083,0 0.814916,-0.22225 0.814916,-0.67733 0,-0.43392 -0.328083,-0.65617 -0.783166,-0.65617 z m 0.550333,2.2225 H 96.55375 v 4.66725 c 0,0.55033 0.254,0.889 0.814916,0.889 0.264583,0 0.560917,-0.10583 0.677333,-0.32808 -0.254,-0.13759 -0.328083,-0.39159 -0.328083,-0.6985 z m -2.330979,0.32808 c 0,-1.43933 -1.026583,-1.95791 -2.50825,-1.95791 -0.635,0 -1.36525,0.0423 -1.989666,0.0847 v 6.94267 h 1.23825 v -6.23358 c 0.211666,-0.0317 0.465666,-0.0529 0.677333,-0.0529 0.889,0 1.312333,0.41275 1.312333,1.25942 0,1.02658 -0.497416,1.47108 -1.55575,1.47108 0,0.0741 0.02117,0.13758 0.0635,0.21167 l 1.883834,3.34433 h 1.354666 l -1.830916,-3.15383 c 0.836083,-0.23284 1.354666,-0.9525 1.354666,-1.91559 z m -36.911303,10.12189 h -3.757083 l -0.275167,3.69358 c 0.4445,-0.0847 0.92075,-0.14816 1.344084,-0.14816 1.090083,0 1.87325,0.35983 1.87325,1.32291 0,0.86784 -0.518584,1.37584 -1.407584,1.37584 -0.92075,0 -1.545166,-0.30692 -1.883833,-0.97367 -0.201083,0.0952 -0.264583,0.32808 -0.264583,0.55033 0,0.98425 1.005416,1.397 2.19075,1.397 1.545166,0 2.69875,-0.97366 2.69875,-2.3495 0,-1.524 -0.963084,-2.14841 -2.582334,-2.14841 -0.28575,0 -0.677333,0.0212 -0.963083,0.0529 l 0.127,-1.70391 h 2.973917 z m -5.918563,5.86317 c -0.4445,0 -0.804334,0.22225 -0.804334,0.67733 0,0.43392 0.328084,0.65617 0.772584,0.65617 0.455083,0 0.814916,-0.22225 0.814916,-0.67734 0,-0.43391 -0.328083,-0.65616 -0.783166,-0.65616 z m -4.148832,-6.07483 c -1.905,0 -2.465916,1.83091 -2.465916,3.73591 0,1.905 0.560916,3.69358 2.465916,3.69358 1.905,0 2.465917,-1.91558 2.465917,-3.82058 0,-1.905 -0.560917,-3.60891 -2.465917,-3.60891 z m 0,6.68866 c -1.026583,0 -1.132416,-1.524 -1.132416,-3.00567 0,-1.34408 0.105833,-2.94216 1.132416,-2.94216 1.016,0 1.132417,1.59808 1.132417,2.94216 0,1.48167 -0.105833,3.00567 -1.132417,3.00567 z m -7.821249,-2.286 h 3.767667 c 0.328083,0 0.508,-0.20108 0.508,-0.52917 0,-0.13758 -0.04233,-0.254 -0.09525,-0.37041 H 40.99974 c -0.328083,0 -0.508,0.20108 -0.508,0.52916 0,0.13759 0.04233,0.254 0.09525,0.37042 z m 0,1.70392 h 3.767667 c 0.328083,0 0.508,-0.20109 0.508,-0.52917 0,-0.13758 -0.04233,-0.254 -0.09525,-0.37042 H 40.99974 c -0.328083,0 -0.508,0.20109 -0.508,0.52917 0,0.13758 0.04233,0.254 0.09525,0.37042 z m -3.376827,-1.60226 -0.227376,-1.19373 q -0.232544,-1.22473 -1.152385,-1.22473 -0.692464,0 -1.00769,0.56844 -0.397909,0.71314 -0.397909,1.65365 0,1.13688 0.387574,1.67948 0.39274,0.55294 1.018025,0.55294 0.692464,0 1.064535,-1.10071 z m 0.532267,-1.5813 0.511597,-1.51412 h 0.847493 l -1.059366,3.13676 0.206705,1.13171 q 0.04651,0.25322 0.227377,0.46509 0.211873,0.24805 0.377237,0.24805 h 0.454753 v 0.80615 h -0.568441 q -0.485758,0 -0.91984,-0.43408 -0.211873,-0.21704 -0.299723,-0.67179 -0.237712,0.5736 -0.72347,1.02319 -0.227377,0.21187 -0.96635,0.21187 -1.214396,0 -1.803507,-0.78548 -0.604614,-0.81132 -0.604614,-2.23242 0,-1.51929 0.65629,-2.23242 0.728638,-0.79582 1.751831,-0.79582 1.607137,0 1.912028,1.64331 z m 18.487885,-10.44777 c -0.264584,0.5715 -0.751417,0.91016 -1.375834,0.91016 -0.931333,0 -1.132416,-0.89958 -1.164166,-1.83091 0.137583,0.0106 0.41275,0.0212 0.582083,0.0212 1.312333,0 2.38125,-0.34925 2.38125,-1.66158 0,-1.016 -0.719667,-1.55575 -1.735667,-1.55575 -1.725083,0 -2.455333,1.3335 -2.455333,3.048 0,1.60867 0.66675,2.794 2.286,2.794 0.804333,0 1.725083,-0.46567 1.725083,-1.27 0,-0.1905 -0.0635,-0.37042 -0.243416,-0.45508 z m -1.481667,-3.51367 c 0.529167,0 0.751417,0.48683 0.751417,1.016 0,0.79375 -0.53975,1.06892 -1.3335,1.06892 -0.148167,0 -0.306917,-0.0106 -0.47625,-0.0317 0.02117,-0.91017 0.211666,-2.05317 1.058333,-2.05317 z m -5.508956,6.49817 c -0.486834,0 -0.740834,-0.24342 -0.740834,-0.73025 0,-0.15875 0.03175,-0.3175 0.08467,-0.47625 -0.105833,-0.0847 -0.306917,-0.11642 -0.433917,-0.11642 -0.497416,0 -0.8255,0.24342 -0.8255,0.74083 0,0.889 0.931334,1.2065 1.830917,1.2065 1.87325,0 2.264833,-1.31233 2.264833,-3.18558 v -4.45558 l -1.037166,0.11641 c -0.338667,-0.127 -0.6985,-0.20108 -1.068917,-0.20108 -1.55575,0 -2.307167,0.97367 -2.307167,2.52942 0,1.4605 0.53975,2.57175 2.00025,2.57175 0.497417,0 1.005417,-0.17992 1.291167,-0.59267 v 0.28575 c 0,1.04775 -0.01058,2.30717 -1.058333,2.30717 z m 1.016,-6.12775 v 2.18016 c 0,0.66675 -0.275167,1.23825 -0.931334,1.23825 -0.931333,0 -1.068916,-0.98425 -1.068916,-1.91558 0,-0.86783 0.148166,-1.8415 1.016,-1.8415 0.34925,0 0.687916,0.13758 0.98425,0.33867 z m -4.416888,3.76766 v -6.6675 l -1.164167,0.127 v 1.93675 c -0.28575,-0.0952 -0.624417,-0.13758 -0.92075,-0.13758 -1.693333,0 -2.370667,1.21708 -2.370667,2.89983 0,1.54517 0.508,2.94217 2.053167,2.94217 0.53975,0 1.11125,-0.23283 1.354667,-0.71967 0.05292,0.40217 0.34925,0.64559 0.751416,0.64559 0.264584,0 0.508,-0.10584 0.624417,-0.32809 -0.254,-0.13758 -0.328083,-0.39158 -0.328083,-0.6985 z M 44.674637,158.435 v 2.93159 c 0,0.65616 -0.275167,1.23825 -0.92075,1.23825 -0.9525,0 -1.100667,-1.3335 -1.100667,-2.286 0,-0.97367 0.07408,-2.21192 1.04775,-2.21192 0.34925,0 0.677334,0.127 0.973667,0.32808 z m -4.922738,-2.97391 c -0.4445,0 -0.804333,0.22225 -0.804333,0.67733 0,0.43392 0.328083,0.65617 0.772583,0.65617 0.455083,0 0.814917,-0.22225 0.814917,-0.67734 0,-0.43391 -0.328084,-0.65616 -0.783167,-0.65616 z m 0.550333,2.2225 h -1.164166 v 4.66725 c 0,0.55033 0.254,0.889 0.814916,0.889 0.264584,0 0.560917,-0.10584 0.677334,-0.32809 -0.254,-0.13758 -0.328084,-0.39158 -0.328084,-0.6985 z m -2.330979,0.32808 c 0,-1.43933 -1.026583,-1.95792 -2.508249,-1.95792 -0.635,0 -1.36525,0.0423 -1.989667,0.0847 v 6.94267 h 1.23825 v -6.23359 c 0.211667,-0.0317 0.465667,-0.0529 0.677333,-0.0529 0.889,0 1.312333,0.41275 1.312333,1.25941 0,1.02659 -0.497416,1.47109 -1.555749,1.47109 0,0.0741 0.02117,0.13758 0.0635,0.21166 l 1.883833,3.34434 h 1.354666 l -1.830916,-3.15384 c 0.836083,-0.23283 1.354666,-0.9525 1.354666,-1.91558 z m 70.718697,-37.04686 c 0.60325,0 0.85725,0.35984 0.85725,0.96309 0,0.14816 -0.0318,0.381 -0.0847,0.52916 0.13758,0.127 0.37042,0.16934 0.55033,0.16934 0.49742,0 0.81492,-0.35984 0.81492,-0.85725 0,-1.143 -0.89958,-1.54517 -2.04258,-1.54517 -2.06375,0 -2.75167,1.68275 -2.75167,3.73592 0,2.06375 0.60325,3.69358 2.65642,3.69358 0.99483,0 2.02141,-0.508 2.02141,-1.50283 0,-0.3175 -0.10583,-0.52917 -0.41275,-0.62442 -0.22225,0.70908 -0.75141,1.15358 -1.50283,1.15358 -1.30175,0 -1.42875,-1.47108 -1.42875,-2.77283 0,-1.21708 0.10584,-2.94217 1.32292,-2.94217 z m -5.68226,0.84667 c -1.651,0 -2.32833,1.30175 -2.32833,2.94217 0,1.69333 0.62441,2.89983 2.32833,2.89983 1.7145,0 2.31775,-1.29117 2.31775,-3.00567 0,-1.64041 -0.67733,-2.83633 -2.31775,-2.83633 z m 0,5.207 c -0.99483,0 -1.05833,-1.32292 -1.05833,-2.31775 0,-0.93133 0.127,-2.25425 1.05833,-2.25425 0.93133,0 1.04775,1.31233 1.04775,2.25425 0,0.99483 -0.0635,2.31775 -1.04775,2.31775 z m -2.45368,-4.61433 c 0,-1.50284 -1.005416,-2.01084 -2.508249,-2.01084 -0.635,0 -1.36525,0.0423 -1.989667,0.0847 v 6.94267 h 1.23825 v -6.23359 c 0.211667,-0.0318 0.465667,-0.0529 0.677333,-0.0529 0.889,0 1.312333,0.42333 1.312333,1.31233 0,1.05833 -0.507999,1.524 -1.566333,1.524 0,0.381 0.465667,0.48683 0.846667,0.48683 1.217083,0 1.989666,-0.83608 1.989666,-2.05316 z m -7.552861,-2.18017 c -1.17475,0 -2.116667,0.62442 -2.116667,1.78858 0,2.11667 3.048,2.38125 3.048,3.97934 0,0.60325 -0.455083,0.96308 -1.058333,0.96308 -0.656167,0 -0.9525,-0.34925 -0.9525,-1.00542 0,-0.14816 0.03175,-0.381 0.08467,-0.52916 -0.137584,-0.127 -0.370417,-0.16934 -0.550334,-0.16934 -0.508,0 -0.8255,0.35984 -0.8255,0.85725 0,1.13242 1.016,1.54517 2.148417,1.54517 1.312333,0 2.31775,-0.67733 2.31775,-1.97908 0,-2.11667 -3.048,-2.38125 -3.048,-3.97934 0,-0.51858 0.338667,-0.77258 0.85725,-0.77258 0.582083,0 0.8255,0.34925 0.8255,0.93133 0,0.14817 -0.03175,0.381 -0.07408,0.52917 0.137583,0.127 0.370416,0.16933 0.550333,0.16933 0.497416,0 0.814916,-0.35983 0.814916,-0.85725 0,-1.10066 -0.920749,-1.47108 -2.021416,-1.47108 z m -42.539854,0.81552 c 0.60325,0 0.85725,0.35983 0.85725,0.96308 0,0.14817 -0.03175,0.381 -0.08467,0.52917 0.137583,0.127 0.370416,0.16933 0.550333,0.16933 0.497417,0 0.814917,-0.35983 0.814917,-0.85725 0,-1.143 -0.899584,-1.54517 -2.042584,-1.54517 -2.06375,0 -2.751666,1.68275 -2.751666,3.73592 0,2.06375 0.60325,3.69358 2.656416,3.69358 0.994834,0 2.021417,-0.508 2.021417,-1.50283 0,-0.3175 -0.105833,-0.52917 -0.41275,-0.62442 -0.22225,0.70909 -0.751417,1.15359 -1.502833,1.15359 -1.30175,0 -1.42875,-1.47109 -1.42875,-2.77284 0,-1.21708 0.105833,-2.94216 1.322916,-2.94216 z m -5.682257,0.84666 c -1.651,0 -2.328334,1.30175 -2.328334,2.94217 0,1.69333 0.624417,2.89983 2.328334,2.89983 1.7145,0 2.31775,-1.29116 2.31775,-3.00566 0,-1.64042 -0.677334,-2.83634 -2.31775,-2.83634 z m 0,5.207 c -0.994834,0 -1.058334,-1.32291 -1.058334,-2.31775 0,-0.93133 0.127,-2.25425 1.058334,-2.25425 0.931333,0 1.04775,1.31234 1.04775,2.25425 0,0.99484 -0.0635,2.31775 -1.04775,2.31775 z m -2.453681,-4.61433 c 0,-1.50283 -1.005416,-2.01083 -2.508249,-2.01083 -0.635,0 -1.36525,0.0423 -1.989667,0.0847 v 6.94267 h 1.23825 v -6.23358 c 0.211667,-0.0318 0.465667,-0.0529 0.677333,-0.0529 0.889,0 1.312334,0.42333 1.312334,1.31233 0,1.05834 -0.508,1.524 -1.566334,1.524 0,0.381 0.465667,0.48684 0.846667,0.48684 1.217083,0 1.989666,-0.83609 1.989666,-2.05317 z m -7.552861,-2.18017 c -1.17475,0 -2.116667,0.62442 -2.116667,1.78859 0,2.11666 3.048,2.38125 3.048,3.97933 0,0.60325 -0.455083,0.96308 -1.058333,0.96308 -0.656167,0 -0.9525,-0.34925 -0.9525,-1.00541 0,-0.14817 0.03175,-0.381 0.08467,-0.52917 -0.137584,-0.127 -0.370417,-0.16933 -0.550334,-0.16933 -0.508,0 -0.8255,0.35983 -0.8255,0.85725 0,1.13241 1.016,1.54516 2.148417,1.54516 1.312333,0 2.31775,-0.67733 2.31775,-1.97908 0,-2.11667 -3.048,-2.38125 -3.048,-3.97933 0,-0.51859 0.338667,-0.77259 0.85725,-0.77259 0.582083,0 0.8255,0.34925 0.8255,0.93134 0,0.14816 -0.03175,0.381 -0.07408,0.52916 0.137583,0.127 0.370416,0.16934 0.550333,0.16934 0.497417,0 0.814917,-0.35984 0.814917,-0.85725 0,-1.10067 -0.92075,-1.47109 -2.021417,-1.47109 z"
         inkscape:connector-curvature="0" />
    </g>
    <g
       aria-label="Training data"
       style="font-style:normal;font-variant:normal;font-weight:normal;font-stretch:normal;font-size:10.58333302px;line-height:1.25;font-family:sansita;-inkscape-font-specification:sansita;letter-spacing:0px;word-spacing:0px;fill:#000000;fill-opacity:1;stroke:none;stroke-width:0.26458332"
       id="text875">
      <path
         d="m 53.674771,88.493783 h -4.593167 v 0.783167 h 1.651 v 6.201833 h 1.23825 V 89.27695 h 1.629833 z"
         style="stroke-width:0.26458332"
         id="path11921"
         inkscape:connector-curvature="0" />
      <path
         d="m 56.060155,90.684533 c 0.34925,0 0.497416,0.232833 0.497416,0.592666 0,0.15875 -0.03175,0.3175 -0.08467,0.47625 0.105833,0.08467 0.296333,0.116417 0.423333,0.116417 0.550333,0 0.8255,-0.296333 0.8255,-0.85725 0,-0.709083 -0.4445,-1.143 -1.153583,-1.143 -0.656167,0 -1.17475,0.41275 -1.375834,1.037167 l -0.05292,-0.9525 -0.973667,0.127 v 5.3975 h 1.164167 v -2.7305 c 0,-0.709084 0.02117,-2.06375 0.73025,-2.06375 z"
         style="stroke-width:0.26458332"
         id="path11923"
         inkscape:connector-curvature="0" />
      <path
         d="m 61.209277,94.991949 c 0.0635,0.402167 0.34925,0.645584 0.751416,0.645584 0.264584,0 0.508,-0.105834 0.624417,-0.328084 -0.254,-0.137583 -0.328083,-0.391583 -0.328083,-0.6985 v -2.751666 c 0,-1.397 -0.4445,-1.989667 -1.8415,-1.989667 -1.30175,0 -2.106084,0.486833 -2.106084,1.153583 0,0.497417 0.328084,0.740834 0.8255,0.740834 0.127,0 0.328084,-0.03175 0.433917,-0.116417 -0.05292,-0.15875 -0.08467,-0.3175 -0.08467,-0.47625 0,-0.47625 0.370417,-0.740833 0.85725,-0.740833 0.624417,0 0.751417,0.41275 0.751417,1.04775 v 0.92075 c -1.439333,0 -3.058583,0.275166 -3.058583,1.7145 0,0.963083 0.751416,1.598083 1.7145,1.598083 0.592666,0 1.17475,-0.1905 1.4605,-0.719667 z m -1.037167,0.01058 c -0.550333,0 -0.867833,-0.381 -0.867833,-0.931334 0,-0.92075 0.878416,-1.143 1.799166,-1.143 v 0.836084 c 0,0.656166 -0.275166,1.23825 -0.931333,1.23825 z"
         style="stroke-width:0.26458332"
         id="path11925"
         inkscape:connector-curvature="0" />
      <path
         d="m 64.225527,87.858783 c -0.4445,0 -0.804333,0.22225 -0.804333,0.677333 0,0.433917 0.328083,0.656167 0.772583,0.656167 0.455083,0 0.814917,-0.22225 0.814917,-0.677333 0,-0.433917 -0.328084,-0.656167 -0.783167,-0.656167 z m 0.550333,2.2225 h -1.164166 v 4.66725 c 0,0.550333 0.254,0.889 0.814916,0.889 0.264584,0 0.560917,-0.105834 0.677334,-0.328084 -0.254,-0.137583 -0.328084,-0.391583 -0.328084,-0.6985 z"
         style="stroke-width:0.26458332"
         id="path11927"
         inkscape:connector-curvature="0" />
      <path
         d="m 66.216681,95.478783 h 1.164166 v -2.751667 c 0,-0.9525 0.127,-2.042583 1.0795,-2.042583 0.740834,0 0.804334,0.582083 0.804334,1.322916 v 2.741084 c 0,0.550333 0.254,0.889 0.814916,0.889 0.264584,0 0.560917,-0.105834 0.677334,-0.328084 -0.254,-0.137583 -0.328084,-0.391583 -0.328084,-0.6985 v -2.751666 c 0,-1.248834 -0.338666,-1.989667 -1.5875,-1.989667 -0.740833,0 -1.322916,0.34925 -1.598083,1.037167 l -0.05292,-0.9525 -0.973666,0.127 z"
         style="stroke-width:0.26458332"
         id="path11929"
         inkscape:connector-curvature="0" />
      <path
         d="m 72.390402,87.858783 c -0.4445,0 -0.804333,0.22225 -0.804333,0.677333 0,0.433917 0.328083,0.656167 0.772583,0.656167 0.455083,0 0.814917,-0.22225 0.814917,-0.677333 0,-0.433917 -0.328084,-0.656167 -0.783167,-0.656167 z m 0.550333,2.2225 h -1.164166 v 4.66725 c 0,0.550333 0.254,0.889 0.814916,0.889 0.264584,0 0.560917,-0.105834 0.677334,-0.328084 -0.254,-0.137583 -0.328084,-0.391583 -0.328084,-0.6985 z"
         style="stroke-width:0.26458332"
         id="path11931"
         inkscape:connector-curvature="0" />
      <path
         d="m 74.381558,95.478783 h 1.164166 v -2.751667 c 0,-0.9525 0.127,-2.042583 1.0795,-2.042583 0.740834,0 0.804334,0.582083 0.804334,1.322916 v 2.741084 c 0,0.550333 0.254,0.889 0.814916,0.889 0.264584,0 0.560917,-0.105834 0.677334,-0.328084 -0.254,-0.137583 -0.328084,-0.391583 -0.328084,-0.6985 v -2.751666 c 0,-1.248834 -0.338666,-1.989667 -1.5875,-1.989667 -0.740833,0 -1.322916,0.34925 -1.598083,1.037167 l -0.05292,-0.9525 -0.973666,0.127 z"
         style="stroke-width:0.26458332"
         id="path11933"
         inkscape:connector-curvature="0" />
      <path
         d="m 81.878196,96.971033 c -0.486834,0 -0.740834,-0.243417 -0.740834,-0.73025 0,-0.15875 0.03175,-0.3175 0.08467,-0.47625 -0.105833,-0.08467 -0.306917,-0.116417 -0.433917,-0.116417 -0.497416,0 -0.8255,0.243417 -0.8255,0.740833 0,0.889 0.931334,1.2065 1.830917,1.2065 1.87325,0 2.264833,-1.312333 2.264833,-3.185583 v -4.455583 l -1.037166,0.116416 c -0.338667,-0.127 -0.6985,-0.201083 -1.068917,-0.201083 -1.55575,0 -2.307167,0.973667 -2.307167,2.529417 0,1.4605 0.53975,2.57175 2.00025,2.57175 0.497417,0 1.005417,-0.179917 1.291167,-0.592667 v 0.28575 c 0,1.04775 -0.01058,2.307167 -1.058333,2.307167 z m 1.016,-6.12775 v 2.180166 c 0,0.66675 -0.275167,1.23825 -0.931334,1.23825 -0.931333,0 -1.068916,-0.98425 -1.068916,-1.915583 0,-0.867833 0.148166,-1.8415 1.016,-1.8415 0.34925,0 0.687916,0.137583 0.98425,0.338667 z"
         style="stroke-width:0.26458332"
         id="path11935"
         inkscape:connector-curvature="0" />
      <path
         d="M 91.417087,94.610949 V 87.94345 l -1.164167,0.127 v 1.936749 c -0.28575,-0.09525 -0.624416,-0.137583 -0.92075,-0.137583 -1.693333,0 -2.370666,1.217083 -2.370666,2.899833 0,1.545167 0.508,2.942167 2.053166,2.942167 0.53975,0 1.11125,-0.232833 1.354667,-0.719667 0.05292,0.402167 0.34925,0.645584 0.751417,0.645584 0.264583,0 0.508,-0.105834 0.624416,-0.328084 -0.254,-0.137583 -0.328083,-0.391583 -0.328083,-0.6985 z m -1.164167,-3.77825 v 2.931584 c 0,0.656166 -0.275166,1.23825 -0.92075,1.23825 -0.9525,0 -1.100666,-1.3335 -1.100666,-2.286 0,-0.973667 0.07408,-2.211917 1.04775,-2.211917 0.34925,0 0.677333,0.127 0.973666,0.328083 z"
         style="stroke-width:0.26458332"
         id="path11937"
         inkscape:connector-curvature="0" />
      <path
         d="m 95.770475,94.991949 c 0.0635,0.402167 0.34925,0.645584 0.751417,0.645584 0.264583,0 0.508,-0.105834 0.624416,-0.328084 -0.254,-0.137583 -0.328083,-0.391583 -0.328083,-0.6985 v -2.751666 c 0,-1.397 -0.4445,-1.989667 -1.8415,-1.989667 -1.30175,0 -2.106083,0.486833 -2.106083,1.153583 0,0.497417 0.328083,0.740834 0.8255,0.740834 0.127,0 0.328083,-0.03175 0.433916,-0.116417 -0.05292,-0.15875 -0.08467,-0.3175 -0.08467,-0.47625 0,-0.47625 0.370416,-0.740833 0.85725,-0.740833 0.624416,0 0.751416,0.41275 0.751416,1.04775 v 0.92075 c -1.439333,0 -3.058583,0.275166 -3.058583,1.7145 0,0.963083 0.751417,1.598083 1.7145,1.598083 0.592667,0 1.17475,-0.1905 1.4605,-0.719667 z m -1.037167,0.01058 c -0.550333,0 -0.867833,-0.381 -0.867833,-0.931334 0,-0.92075 0.878417,-1.143 1.799167,-1.143 v 0.836084 c 0,0.656166 -0.275167,1.23825 -0.931334,1.23825 z"
         style="stroke-width:0.26458332"
         id="path11939"
         inkscape:connector-curvature="0" />
      <path
         d="m 98.299889,90.557533 v 4.106333 c 0,0.613833 0.254,0.973667 0.85725,0.973667 0.381,0 0.73025,-0.211667 0.804333,-0.550334 -0.34925,-0.05292 -0.486833,-0.264583 -0.486833,-0.677333 v -3.852333 h 0.994831 v -0.47625 h -0.973664 v -1.04775 h -0.328084 c -0.402166,0.518583 -1.005416,0.9525 -1.629833,1.2065 l 0.01058,0.3175 z"
         style="stroke-width:0.26458332"
         id="path11941"
         inkscape:connector-curvature="0" />
      <path
         d="m 104.08005,94.991949 c 0.0635,0.402167 0.34925,0.645584 0.75141,0.645584 0.26459,0 0.508,-0.105834 0.62442,-0.328084 -0.254,-0.137583 -0.32808,-0.391583 -0.32808,-0.6985 v -2.751666 c 0,-1.397 -0.4445,-1.989667 -1.8415,-1.989667 -1.30175,0 -2.10609,0.486833 -2.10609,1.153583 0,0.497417 0.32809,0.740834 0.8255,0.740834 0.127,0 0.32809,-0.03175 0.43392,-0.116417 -0.0529,-0.15875 -0.0847,-0.3175 -0.0847,-0.47625 0,-0.47625 0.37042,-0.740833 0.85725,-0.740833 0.62442,0 0.75142,0.41275 0.75142,1.04775 v 0.92075 c -1.43933,0 -3.05858,0.275166 -3.05858,1.7145 0,0.963083 0.75141,1.598083 1.7145,1.598083 0.59266,0 1.17475,-0.1905 1.4605,-0.719667 z m -1.03717,0.01058 c -0.55033,0 -0.86783,-0.381 -0.86783,-0.931334 0,-0.92075 0.87841,-1.143 1.79916,-1.143 v 0.836084 c 0,0.656166 -0.27516,1.23825 -0.93133,1.23825 z"
         style="stroke-width:0.26458332"
         id="path11943"
         inkscape:connector-curvature="0" />
    </g>
    <path
       style="fill:none;fill-rule:nonzero;stroke:#000000;stroke-width:0.84666669;stroke-linecap:butt;stroke-linejoin:miter;stroke-miterlimit:4;stroke-dasharray:none;stroke-opacity:1;marker-end:url(#Arrow2Mend)"
       d="m 42.908151,132.43855 v 18.97614"
       id="path4108"
       inkscape:connector-curvature="0"
       inkscape:transform-center-x="-35.271442"
       inkscape:transform-center-y="-9.4599059" />
    <path
       style="fill:none;fill-rule:nonzero;stroke:#000000;stroke-width:0.84666669;stroke-linecap:butt;stroke-linejoin:miter;stroke-miterlimit:4;stroke-dasharray:none;stroke-opacity:1;marker-end:url(#Arrow2Mend-5)"
       d="M 100.75248,132.12286 V 151.099"
       id="path4108-9"
       inkscape:connector-curvature="0"
       inkscape:transform-center-x="-35.271442"
       inkscape:transform-center-y="-9.4599059" />
    <path
       style="fill:none;fill-rule:nonzero;stroke:#000000;stroke-width:0.84666669;stroke-linecap:butt;stroke-linejoin:miter;stroke-miterlimit:4;stroke-dasharray:none;stroke-opacity:1;marker-end:url(#Arrow2Mend-5-9)"
       d="m 85.308819,100.70479 13.41816,13.41816"
       id="path4108-9-0"
       inkscape:connector-curvature="0"
       inkscape:transform-center-x="-18.251512"
       inkscape:transform-center-y="-31.629836" />
    <path
       style="fill:none;fill-rule:nonzero;stroke:#000000;stroke-width:0.84666669;stroke-linecap:butt;stroke-linejoin:miter;stroke-miterlimit:4;stroke-dasharray:none;stroke-opacity:1;marker-end:url(#Arrow2Mend-5-9-2)"
       d="m 49.890317,183.05985 13.41816,13.41816"
       id="path4108-9-0-6"
       inkscape:connector-curvature="0"
       inkscape:transform-center-x="-18.251512"
       inkscape:transform-center-y="-31.629836" />
    <path
       style="fill:none;fill-rule:nonzero;stroke:#000000;stroke-width:0.84666669;stroke-linecap:butt;stroke-linejoin:miter;stroke-miterlimit:4;stroke-dasharray:none;stroke-opacity:1;marker-end:url(#Arrow2Mend-5-9-2-1)"
       d="M 98.335635,183.49634 84.917473,196.9145"
       id="path4108-9-0-6-2"
       inkscape:connector-curvature="0"
       inkscape:transform-center-x="-31.629836"
       inkscape:transform-center-y="18.251514" />
    <path
       style="fill:none;fill-rule:nonzero;stroke:#000000;stroke-width:0.84666669;stroke-linecap:butt;stroke-linejoin:miter;stroke-miterlimit:4;stroke-dasharray:none;stroke-opacity:1;marker-end:url(#Arrow2Mend-5-9-2-1-1)"
       d="m 62.089859,100.46781 -13.41816,13.41816"
       id="path4108-9-0-6-2-9"
       inkscape:connector-curvature="0"
       inkscape:transform-center-x="-31.629836"
       inkscape:transform-center-y="18.251514" />
    <g
       transform="translate(317.15791,41.502789)"
       aria-label="Ridge α=0.05"
       style="font-style:normal;font-variant:normal;font-weight:normal;font-stretch:normal;font-size:10.58333302px;line-height:1.25;font-family:sansita;-inkscape-font-specification:'sansita, Normal';font-variant-ligatures:normal;font-variant-caps:normal;font-variant-numeric:normal;font-feature-settings:normal;text-align:start;letter-spacing:0px;word-spacing:0px;writing-mode:lr-tb;text-anchor:start;fill:#000000;fill-opacity:1;stroke:none;stroke-width:0.26458332"
       id="text847-5-0">
      <g
         style="font-style:normal;font-variant:normal;font-weight:normal;font-stretch:normal;font-size:10.58333302px;line-height:1.25;font-family:sansita;-inkscape-font-specification:sansita;letter-spacing:0px;word-spacing:0px;fill:#000000;fill-opacity:1;stroke:none;stroke-width:0.07000434"
         id="text10624" />
      <g
         aria-label="SPoc"
         style="font-style:normal;font-variant:normal;font-weight:normal;font-stretch:normal;font-size:10.58333302px;line-height:1.25;font-family:sansita;-inkscape-font-specification:sansita;letter-spacing:0px;word-spacing:0px;fill:#000000;fill-opacity:1;stroke:none;stroke-width:0.07000434"
         id="text10628">
        <path
           d="m -118.73019,77.007267 c -1.17475,0 -2.11667,0.624417 -2.11667,1.788584 0,2.116666 3.048,2.381249 3.048,3.979333 0,0.60325 -0.45508,0.963083 -1.05833,0.963083 -0.65617,0 -0.9525,-0.34925 -0.9525,-1.005417 0,-0.148166 0.0318,-0.381 0.0847,-0.529166 -0.13759,-0.127 -0.37042,-0.169334 -0.55034,-0.169334 -0.508,0 -0.8255,0.359834 -0.8255,0.85725 0,1.132417 1.016,1.545167 2.14842,1.545167 1.31233,0 2.31775,-0.677333 2.31775,-1.979083 0,-2.116667 -3.048,-2.38125 -3.048,-3.979333 0,-0.518584 0.33867,-0.772584 0.85725,-0.772584 0.58208,0 0.8255,0.34925 0.8255,0.931334 0,0.148166 -0.0318,0.381 -0.0741,0.529166 0.13758,0.127 0.37041,0.169334 0.55033,0.169334 0.49742,0 0.81492,-0.359834 0.81492,-0.85725 0,-1.100667 -0.92075,-1.471084 -2.02142,-1.471084 z"
           style="stroke-width:0.07000434"
           id="path11520"
           inkscape:connector-curvature="0" />
        <path
           d="m -111.17733,79.187434 c 0,-1.502833 -1.00541,-2.010833 -2.50825,-2.010833 -0.635,0 -1.36525,0.04233 -1.98966,0.08467 v 6.942667 h 1.23825 v -6.233583 c 0.21166,-0.03175 0.46566,-0.05292 0.67733,-0.05292 0.889,0 1.31233,0.423333 1.31233,1.312333 0,1.058334 -0.508,1.524 -1.56633,1.524 0,0.381 0.46567,0.486833 0.84667,0.486833 1.21708,0 1.98966,-0.836083 1.98966,-2.053167 z"
           style="stroke-width:0.07000434"
           id="path11522"
           inkscape:connector-curvature="0" />
        <path
           d="m -108.72365,78.594767 c -1.651,0 -2.32833,1.30175 -2.32833,2.942167 0,1.693333 0.62442,2.899833 2.32833,2.899833 1.7145,0 2.31775,-1.291167 2.31775,-3.005667 0,-1.640416 -0.67733,-2.836333 -2.31775,-2.836333 z m 0,5.207 c -0.99483,0 -1.05833,-1.322917 -1.05833,-2.31775 0,-0.931333 0.127,-2.25425 1.05833,-2.25425 0.93134,0 1.04775,1.312333 1.04775,2.25425 0,0.994833 -0.0635,2.31775 -1.04775,2.31775 z"
           style="stroke-width:0.07000434"
           id="path11524"
           inkscape:connector-curvature="0" />
        <path
           d="m -103.43297,79.219184 c 0.45508,0 0.635,0.275167 0.635,0.73025 0,0.15875 -0.0317,0.3175 -0.0847,0.47625 0.10583,0.08467 0.30692,0.116416 0.43392,0.116416 0.49741,0 0.8255,-0.243416 0.8255,-0.740833 0,-0.867833 -0.77259,-1.2065 -1.64042,-1.2065 -1.72508,0 -2.45533,1.3335 -2.45533,3.048 0,1.608667 0.66675,2.794 2.286,2.794 0.80433,0 1.69333,-0.465667 1.69333,-1.27 0,-0.254 -0.10583,-0.391583 -0.33867,-0.497417 -0.15875,0.60325 -0.62441,0.9525 -1.24883,0.9525 -1.016,0 -1.16417,-1.0795 -1.16417,-2.0955 0,-0.931333 0.127,-2.307166 1.05834,-2.307166 z"
           style="stroke-width:0.07000434"
           id="path11526"
           inkscape:connector-curvature="0" />
      </g>
    </g>
    <g
       aria-label="Training data"
       style="font-style:normal;font-variant:normal;font-weight:normal;font-stretch:normal;font-size:10.58333302px;line-height:1.25;font-family:sansita;-inkscape-font-specification:sansita;letter-spacing:0px;word-spacing:0px;fill:#000000;fill-opacity:1;stroke:none;stroke-width:0.26458332"
       id="text875-2"
       transform="translate(17.10525,-0.53453909)">
      <path
         d="m 166.70194,89.612382 h -4.59316 v 0.783166 h 1.651 v 6.201834 h 1.23825 v -6.201834 h 1.62983 z"
         style="stroke-width:0.26458332"
         id="path11530"
         inkscape:connector-curvature="0" />
      <path
         d="m 169.08733,91.803132 c 0.34925,0 0.49741,0.232833 0.49741,0.592666 0,0.15875 -0.0318,0.3175 -0.0847,0.47625 0.10583,0.08467 0.29633,0.116417 0.42333,0.116417 0.55033,0 0.8255,-0.296333 0.8255,-0.85725 0,-0.709083 -0.4445,-1.143 -1.15358,-1.143 -0.65617,0 -1.17475,0.41275 -1.37584,1.037167 l -0.0529,-0.9525 -0.97367,0.127 v 5.3975 h 1.16417 v -2.7305 c 0,-0.709084 0.0212,-2.06375 0.73025,-2.06375 z"
         style="stroke-width:0.26458332"
         id="path11532"
         inkscape:connector-curvature="0" />
      <path
         d="m 174.23645,96.110548 c 0.0635,0.402167 0.34925,0.645584 0.75142,0.645584 0.26458,0 0.508,-0.105834 0.62441,-0.328084 -0.254,-0.137583 -0.32808,-0.391583 -0.32808,-0.6985 v -2.751666 c 0,-1.397 -0.4445,-1.989667 -1.8415,-1.989667 -1.30175,0 -2.10608,0.486833 -2.10608,1.153583 0,0.497417 0.32808,0.740834 0.8255,0.740834 0.127,0 0.32808,-0.03175 0.43391,-0.116417 -0.0529,-0.15875 -0.0847,-0.3175 -0.0847,-0.47625 0,-0.47625 0.37041,-0.740833 0.85725,-0.740833 0.62441,0 0.75141,0.41275 0.75141,1.04775 v 0.92075 c -1.43933,0 -3.05858,0.275166 -3.05858,1.7145 0,0.963083 0.75142,1.598083 1.7145,1.598083 0.59267,0 1.17475,-0.1905 1.4605,-0.719667 z m -1.03717,0.01058 c -0.55033,0 -0.86783,-0.381 -0.86783,-0.931334 0,-0.92075 0.87842,-1.143 1.79917,-1.143 v 0.836084 c 0,0.656166 -0.27517,1.23825 -0.93134,1.23825 z"
         style="stroke-width:0.26458332"
         id="path11534"
         inkscape:connector-curvature="0" />
      <path
         d="m 177.2527,88.977382 c -0.4445,0 -0.80433,0.22225 -0.80433,0.677333 0,0.433917 0.32808,0.656167 0.77258,0.656167 0.45508,0 0.81492,-0.22225 0.81492,-0.677334 0,-0.433916 -0.32809,-0.656166 -0.78317,-0.656166 z m 0.55033,2.2225 h -1.16416 v 4.66725 c 0,0.550333 0.254,0.889 0.81491,0.889 0.26459,0 0.56092,-0.105834 0.67734,-0.328084 -0.254,-0.137583 -0.32809,-0.391583 -0.32809,-0.6985 z"
         style="stroke-width:0.26458332"
         id="path11536"
         inkscape:connector-curvature="0" />
      <path
         d="m 179.24385,96.597382 h 1.16417 v -2.751667 c 0,-0.9525 0.127,-2.042583 1.0795,-2.042583 0.74083,0 0.80433,0.582083 0.80433,1.322916 v 2.741084 c 0,0.550333 0.254,0.889 0.81492,0.889 0.26458,0 0.56092,-0.105834 0.67733,-0.328084 -0.254,-0.137583 -0.32808,-0.391583 -0.32808,-0.6985 v -2.751666 c 0,-1.248834 -0.33867,-1.989667 -1.5875,-1.989667 -0.74083,0 -1.32292,0.34925 -1.59808,1.037167 l -0.0529,-0.9525 -0.97367,0.127 z"
         style="stroke-width:0.26458332"
         id="path11538"
         inkscape:connector-curvature="0" />
      <path
         d="m 185.41757,88.977382 c -0.4445,0 -0.80433,0.22225 -0.80433,0.677333 0,0.433917 0.32808,0.656167 0.77258,0.656167 0.45509,0 0.81492,-0.22225 0.81492,-0.677334 0,-0.433916 -0.32808,-0.656166 -0.78317,-0.656166 z m 0.55034,2.2225 h -1.16417 v 4.66725 c 0,0.550333 0.254,0.889 0.81492,0.889 0.26458,0 0.56091,-0.105834 0.67733,-0.328084 -0.254,-0.137583 -0.32808,-0.391583 -0.32808,-0.6985 z"
         style="stroke-width:0.26458332"
         id="path11540"
         inkscape:connector-curvature="0" />
      <path
         d="m 187.40873,96.597382 h 1.16417 v -2.751667 c 0,-0.9525 0.127,-2.042583 1.0795,-2.042583 0.74083,0 0.80433,0.582083 0.80433,1.322916 v 2.741084 c 0,0.550333 0.254,0.889 0.81492,0.889 0.26458,0 0.56091,-0.105834 0.67733,-0.328084 -0.254,-0.137583 -0.32808,-0.391583 -0.32808,-0.6985 v -2.751666 c 0,-1.248834 -0.33867,-1.989667 -1.5875,-1.989667 -0.74084,0 -1.32292,0.34925 -1.59809,1.037167 l -0.0529,-0.9525 -0.97367,0.127 z"
         style="stroke-width:0.26458332"
         id="path11542"
         inkscape:connector-curvature="0" />
      <path
         d="m 194.90537,98.089632 c -0.48684,0 -0.74084,-0.243417 -0.74084,-0.73025 0,-0.15875 0.0317,-0.3175 0.0847,-0.47625 -0.10583,-0.08467 -0.30692,-0.116417 -0.43392,-0.116417 -0.49741,0 -0.8255,0.243417 -0.8255,0.740833 0,0.889 0.93134,1.2065 1.83092,1.2065 1.87325,0 2.26483,-1.312333 2.26483,-3.185583 v -4.455583 l -1.03716,0.116416 c -0.33867,-0.127 -0.6985,-0.201083 -1.06892,-0.201083 -1.55575,0 -2.30717,0.973667 -2.30717,2.529417 0,1.4605 0.53975,2.57175 2.00025,2.57175 0.49742,0 1.00542,-0.179917 1.29117,-0.592667 v 0.28575 c 0,1.04775 -0.0106,2.307167 -1.05833,2.307167 z m 1.016,-6.12775 v 2.180166 c 0,0.66675 -0.27517,1.23825 -0.93134,1.23825 -0.93133,0 -1.06891,-0.98425 -1.06891,-1.915583 0,-0.867833 0.14816,-1.8415 1.016,-1.8415 0.34925,0 0.68791,0.137583 0.98425,0.338667 z"
         style="stroke-width:0.26458332"
         id="path11544"
         inkscape:connector-curvature="0" />
      <path
         d="m 204.44426,95.729548 v -6.6675 l -1.16417,0.127 v 1.93675 c -0.28575,-0.09525 -0.62441,-0.137583 -0.92075,-0.137583 -1.69333,0 -2.37066,1.217083 -2.37066,2.899833 0,1.545167 0.508,2.942167 2.05316,2.942167 0.53975,0 1.11125,-0.232833 1.35467,-0.719667 0.0529,0.402167 0.34925,0.645584 0.75142,0.645584 0.26458,0 0.508,-0.105834 0.62441,-0.328084 -0.254,-0.137583 -0.32808,-0.391583 -0.32808,-0.6985 z m -1.16417,-3.77825 v 2.931584 c 0,0.656166 -0.27516,1.23825 -0.92075,1.23825 -0.9525,0 -1.10066,-1.3335 -1.10066,-2.286 0,-0.973667 0.0741,-2.211917 1.04775,-2.211917 0.34925,0 0.67733,0.127 0.97366,0.328083 z"
         style="stroke-width:0.26458332"
         id="path11546"
         inkscape:connector-curvature="0" />
      <path
         d="m 208.79765,96.110548 c 0.0635,0.402167 0.34925,0.645584 0.75141,0.645584 0.26459,0 0.508,-0.105834 0.62442,-0.328084 -0.254,-0.137583 -0.32808,-0.391583 -0.32808,-0.6985 v -2.751666 c 0,-1.397 -0.4445,-1.989667 -1.8415,-1.989667 -1.30175,0 -2.10609,0.486833 -2.10609,1.153583 0,0.497417 0.32809,0.740834 0.8255,0.740834 0.127,0 0.32809,-0.03175 0.43392,-0.116417 -0.0529,-0.15875 -0.0847,-0.3175 -0.0847,-0.47625 0,-0.47625 0.37042,-0.740833 0.85725,-0.740833 0.62442,0 0.75142,0.41275 0.75142,1.04775 v 0.92075 c -1.43933,0 -3.05858,0.275166 -3.05858,1.7145 0,0.963083 0.75141,1.598083 1.7145,1.598083 0.59266,0 1.17475,-0.1905 1.4605,-0.719667 z m -1.03717,0.01058 c -0.55033,0 -0.86783,-0.381 -0.86783,-0.931334 0,-0.92075 0.87841,-1.143 1.79916,-1.143 v 0.836084 c 0,0.656166 -0.27516,1.23825 -0.93133,1.23825 z"
         style="stroke-width:0.26458332"
         id="path11548"
         inkscape:connector-curvature="0" />
      <path
         d="m 211.32706,91.676132 v 4.106333 c 0,0.613833 0.254,0.973667 0.85725,0.973667 0.381,0 0.73025,-0.211667 0.80433,-0.550334 -0.34925,-0.05292 -0.48683,-0.264583 -0.48683,-0.677333 v -3.852333 h 0.99483 v -0.47625 h -0.97366 v -1.04775 h -0.32809 c -0.40216,0.518583 -1.00541,0.9525 -1.62983,1.2065 l 0.0106,0.3175 z"
         style="stroke-width:0.26458332"
         id="path11550"
         inkscape:connector-curvature="0" />
      <path
         d="m 217.10722,96.110548 c 0.0635,0.402167 0.34925,0.645584 0.75141,0.645584 0.26459,0 0.508,-0.105834 0.62442,-0.328084 -0.254,-0.137583 -0.32808,-0.391583 -0.32808,-0.6985 v -2.751666 c 0,-1.397 -0.4445,-1.989667 -1.8415,-1.989667 -1.30175,0 -2.10609,0.486833 -2.10609,1.153583 0,0.497417 0.32809,0.740834 0.8255,0.740834 0.127,0 0.32809,-0.03175 0.43392,-0.116417 -0.0529,-0.15875 -0.0847,-0.3175 -0.0847,-0.47625 0,-0.47625 0.37042,-0.740833 0.85725,-0.740833 0.62442,0 0.75142,0.41275 0.75142,1.04775 v 0.92075 c -1.43933,0 -3.05858,0.275166 -3.05858,1.7145 0,0.963083 0.75141,1.598083 1.7145,1.598083 0.59266,0 1.17475,-0.1905 1.4605,-0.719667 z m -1.03717,0.01058 c -0.55033,0 -0.86783,-0.381 -0.86783,-0.931334 0,-0.92075 0.87841,-1.143 1.79916,-1.143 v 0.836084 c 0,0.656166 -0.27516,1.23825 -0.93133,1.23825 z"
         style="stroke-width:0.26458332"
         id="path11552"
         inkscape:connector-curvature="0" />
    </g>
    <g
       aria-label="Choose best
pipeline"
       style="font-style:normal;font-variant:normal;font-weight:normal;font-stretch:normal;font-size:10.58333302px;line-height:1.25;font-family:sansita;-inkscape-font-specification:sansita;text-align:center;letter-spacing:0px;word-spacing:0px;text-anchor:middle;fill:#000000;fill-opacity:1;stroke:none;stroke-width:0.26458332"
       id="text879-6"
       transform="translate(18.708867,-1.8708867)">
      <path
         d="m 167.5434,204.26563 c 0.60325,0 0.85725,0.35984 0.85725,0.96309 0,0.14816 -0.0318,0.381 -0.0847,0.52916 0.13758,0.127 0.37042,0.16934 0.55033,0.16934 0.49742,0 0.81492,-0.35984 0.81492,-0.85725 0,-1.143 -0.89958,-1.54517 -2.04258,-1.54517 -2.06375,0 -2.75167,1.68275 -2.75167,3.73592 0,2.06375 0.60325,3.69358 2.65642,3.69358 0.99483,0 2.02141,-0.508 2.02141,-1.50283 0,-0.3175 -0.10583,-0.52917 -0.41275,-0.62442 -0.22225,0.70908 -0.75141,1.15358 -1.50283,1.15358 -1.30175,0 -1.42875,-1.47108 -1.42875,-2.77283 0,-1.21708 0.10583,-2.94217 1.32292,-2.94217 z"
         style="text-align:center;text-anchor:middle;stroke-width:0.26458332"
         id="path11555"
         inkscape:connector-curvature="0" />
      <path
         d="m 171.84784,203.18613 -1.16417,0.127 v 7.40834 h 1.16417 v -2.75167 c 0,-0.9525 0.127,-2.04258 1.0795,-2.04258 0.74083,0 0.80433,0.58208 0.80433,1.32291 v 2.74109 c 0,0.55033 0.254,0.889 0.81492,0.889 0.26458,0 0.56091,-0.10584 0.67733,-0.32809 -0.254,-0.13758 -0.32808,-0.39158 -0.32808,-0.6985 v -2.75166 c 0,-1.24884 -0.33867,-1.98967 -1.5875,-1.98967 -0.70909,0 -1.27,0.3175 -1.56634,0.96308 0.0741,-0.381 0.10584,-0.98425 0.10584,-1.69333 z"
         style="text-align:center;text-anchor:middle;stroke-width:0.26458332"
         id="path11557"
         inkscape:connector-curvature="0" />
      <path
         d="m 178.23223,205.1123 c -1.651,0 -2.32833,1.30175 -2.32833,2.94217 0,1.69333 0.62442,2.89983 2.32833,2.89983 1.7145,0 2.31775,-1.29117 2.31775,-3.00567 0,-1.64041 -0.67733,-2.83633 -2.31775,-2.83633 z m 0,5.207 c -0.99483,0 -1.05833,-1.32292 -1.05833,-2.31775 0,-0.93133 0.127,-2.25425 1.05833,-2.25425 0.93134,0 1.04775,1.31233 1.04775,2.25425 0,0.99483 -0.0635,2.31775 -1.04775,2.31775 z"
         style="text-align:center;text-anchor:middle;stroke-width:0.26458332"
         id="path11559"
         inkscape:connector-curvature="0" />
      <path
         d="m 183.56524,205.1123 c -1.651,0 -2.32833,1.30175 -2.32833,2.94217 0,1.69333 0.62441,2.89983 2.32833,2.89983 1.7145,0 2.31775,-1.29117 2.31775,-3.00567 0,-1.64041 -0.67733,-2.83633 -2.31775,-2.83633 z m 0,5.207 c -0.99483,0 -1.05833,-1.32292 -1.05833,-2.31775 0,-0.93133 0.127,-2.25425 1.05833,-2.25425 0.93133,0 1.04775,1.31233 1.04775,2.25425 0,0.99483 -0.0635,2.31775 -1.04775,2.31775 z"
         style="text-align:center;text-anchor:middle;stroke-width:0.26458332"
         id="path11561"
         inkscape:connector-curvature="0" />
      <path
         d="m 188.65483,205.67322 c 0.4445,0 0.67733,0.28575 0.67733,0.74083 0,0.15875 -0.0317,0.3175 -0.0847,0.47625 0.10583,0.0847 0.30691,0.11642 0.43391,0.11642 0.49742,0 0.8255,-0.24342 0.8255,-0.74084 0,-0.889 -0.8255,-1.15358 -1.7145,-1.15358 -1.00541,0 -1.95791,0.48683 -1.95791,1.48167 0,1.778 2.57175,1.651 2.57175,2.9845 0,0.52916 -0.27517,0.81491 -0.80434,0.81491 -0.46566,0 -0.77258,-0.26458 -0.77258,-0.73025 0,-0.15875 0.0317,-0.3175 0.0847,-0.47625 -0.10584,-0.0847 -0.30692,-0.11641 -0.43392,-0.11641 -0.49742,0 -0.8255,0.24341 -0.8255,0.74083 0,0.889 0.93133,1.143 1.82033,1.143 1.13242,0 2.04259,-0.55033 2.04259,-1.67217 0,-1.778 -2.57175,-1.64041 -2.57175,-2.97391 0,-0.41275 0.29633,-0.635 0.70908,-0.635 z"
         style="text-align:center;text-anchor:middle;stroke-width:0.26458332"
         id="path11563"
         inkscape:connector-curvature="0" />
      <path
         d="m 195.0298,209.22922 c -0.26458,0.5715 -0.75142,0.91016 -1.37583,0.91016 -0.93134,0 -1.13242,-0.89958 -1.16417,-1.83091 0.13758,0.0106 0.41275,0.0212 0.58208,0.0212 1.31234,0 2.38125,-0.34925 2.38125,-1.66158 0,-1.016 -0.71966,-1.55575 -1.73566,-1.55575 -1.72509,0 -2.45534,1.3335 -2.45534,3.048 0,1.60867 0.66675,2.794 2.286,2.794 0.80434,0 1.72509,-0.46567 1.72509,-1.27 0,-0.1905 -0.0635,-0.37042 -0.24342,-0.45508 z m -1.48167,-3.51367 c 0.52917,0 0.75142,0.48683 0.75142,1.016 0,0.79375 -0.53975,1.06892 -1.3335,1.06892 -0.14817,0 -0.30692,-0.0106 -0.47625,-0.0317 0.0212,-0.91017 0.21167,-2.05317 1.05833,-2.05317 z"
         style="text-align:center;text-anchor:middle;stroke-width:0.26458332"
         id="path11565"
         inkscape:connector-curvature="0" />
      <path
         d="m 199.5464,203.18613 -1.16416,0.127 v 7.14375 c 0.58208,0.3175 1.41816,0.49742 2.0955,0.49742 1.69333,0 2.37066,-1.32292 2.37066,-3.00567 0,-1.44991 -0.46566,-2.83633 -1.91558,-2.83633 -0.64558,0 -1.22767,0.37042 -1.49225,0.96308 0.0741,-0.381 0.10583,-0.98425 0.10583,-1.69333 z m 0,6.81567 v -2.032 c 0,-0.92075 0.11642,-2.04258 1.04775,-2.04258 0.889,0 0.98425,1.17475 0.98425,2.07433 0,0.97367 -0.0741,2.31775 -1.03716,2.31775 -0.34925,0 -0.6985,-0.11642 -0.99484,-0.3175 z"
         style="text-align:center;text-anchor:middle;stroke-width:0.26458332"
         id="path11567"
         inkscape:connector-curvature="0" />
      <path
         d="m 207.28745,209.22922 c -0.26459,0.5715 -0.75142,0.91016 -1.37584,0.91016 -0.93133,0 -1.13241,-0.89958 -1.16416,-1.83091 0.13758,0.0106 0.41275,0.0212 0.58208,0.0212 1.31233,0 2.38125,-0.34925 2.38125,-1.66158 0,-1.016 -0.71967,-1.55575 -1.73567,-1.55575 -1.72508,0 -2.45533,1.3335 -2.45533,3.048 0,1.60867 0.66675,2.794 2.286,2.794 0.80433,0 1.72508,-0.46567 1.72508,-1.27 0,-0.1905 -0.0635,-0.37042 -0.24341,-0.45508 z m -1.48167,-3.51367 c 0.52917,0 0.75142,0.48683 0.75142,1.016 0,0.79375 -0.53975,1.06892 -1.3335,1.06892 -0.14817,0 -0.30692,-0.0106 -0.47625,-0.0317 0.0212,-0.91017 0.21166,-2.05317 1.05833,-2.05317 z"
         style="text-align:center;text-anchor:middle;stroke-width:0.26458332"
         id="path11569"
         inkscape:connector-curvature="0" />
      <path
         d="m 210.46228,205.67322 c 0.4445,0 0.67734,0.28575 0.67734,0.74083 0,0.15875 -0.0318,0.3175 -0.0847,0.47625 0.10583,0.0847 0.30692,0.11642 0.43392,0.11642 0.49741,0 0.8255,-0.24342 0.8255,-0.74084 0,-0.889 -0.8255,-1.15358 -1.7145,-1.15358 -1.00542,0 -1.95792,0.48683 -1.95792,1.48167 0,1.778 2.57175,1.651 2.57175,2.9845 0,0.52916 -0.27517,0.81491 -0.80433,0.81491 -0.46567,0 -0.77259,-0.26458 -0.77259,-0.73025 0,-0.15875 0.0318,-0.3175 0.0847,-0.47625 -0.10583,-0.0847 -0.30692,-0.11641 -0.43392,-0.11641 -0.49741,0 -0.8255,0.24341 -0.8255,0.74083 0,0.889 0.93134,1.143 1.82034,1.143 1.13241,0 2.04258,-0.55033 2.04258,-1.67217 0,-1.778 -2.57175,-1.64041 -2.57175,-2.97391 0,-0.41275 0.29633,-0.635 0.70908,-0.635 z"
         style="text-align:center;text-anchor:middle;stroke-width:0.26458332"
         id="path11571"
         inkscape:connector-curvature="0" />
      <path
         d="m 213.53525,205.80022 v 4.10633 c 0,0.61383 0.254,0.97367 0.85725,0.97367 0.381,0 0.73025,-0.21167 0.80434,-0.55034 -0.34925,-0.0529 -0.48684,-0.26458 -0.48684,-0.67733 v -3.85233 h 0.99484 v -0.47625 h -0.97367 v -1.04775 h -0.32808 c -0.40217,0.51858 -1.00542,0.9525 -1.62984,1.2065 l 0.0106,0.3175 z"
         style="text-align:center;text-anchor:middle;stroke-width:0.26458332"
         id="path11573"
         inkscape:connector-curvature="0" />
      <path
         d="m 176.388,218.34147 c -0.75141,0 -1.29116,0.33866 -1.5875,1.03716 l -0.0529,-0.9525 -0.97367,0.127 v 7.44009 l 1.16417,-0.127 v -1.82034 c 0.28575,0.0952 0.62441,0.13759 0.92075,0.13759 1.69333,0 2.37066,-1.32292 2.37066,-3.00567 0,-1.43933 -0.40216,-2.83633 -1.8415,-2.83633 z m -0.40216,0.81491 c 0.92075,0 0.97366,1.143 0.97366,2.07434 0,0.97366 -0.0741,2.31775 -1.03716,2.31775 -0.34925,0 -0.68792,-0.127 -0.98425,-0.32809 v -2.51883 c 0,-0.79375 0.254,-1.54517 1.04775,-1.54517 z"
         style="text-align:center;text-anchor:middle;stroke-width:0.26458332"
         id="path11575"
         inkscape:connector-curvature="0" />
      <path
         d="m 179.86397,216.33063 c -0.4445,0 -0.80434,0.22225 -0.80434,0.67734 0,0.43391 0.32809,0.65616 0.77259,0.65616 0.45508,0 0.81491,-0.22225 0.81491,-0.67733 0,-0.43392 -0.32808,-0.65617 -0.78316,-0.65617 z m 0.55033,2.2225 h -1.16417 v 4.66725 c 0,0.55034 0.254,0.889 0.81492,0.889 0.26458,0 0.56092,-0.10583 0.67733,-0.32808 -0.254,-0.13758 -0.32808,-0.39158 -0.32808,-0.6985 z"
         style="text-align:center;text-anchor:middle;stroke-width:0.26458332"
         id="path11577"
         inkscape:connector-curvature="0" />
      <path
         d="m 184.51154,218.34147 c -0.75142,0 -1.29117,0.33866 -1.5875,1.03716 l -0.0529,-0.9525 -0.97366,0.127 v 7.44009 l 1.16416,-0.127 v -1.82034 c 0.28575,0.0952 0.62442,0.13759 0.92075,0.13759 1.69334,0 2.37067,-1.32292 2.37067,-3.00567 0,-1.43933 -0.40217,-2.83633 -1.8415,-2.83633 z m -0.40217,0.81491 c 0.92075,0 0.97367,1.143 0.97367,2.07434 0,0.97366 -0.0741,2.31775 -1.03717,2.31775 -0.34925,0 -0.68791,-0.127 -0.98425,-0.32809 v -2.51883 c 0,-0.79375 0.254,-1.54517 1.04775,-1.54517 z"
         style="text-align:center;text-anchor:middle;stroke-width:0.26458332"
         id="path11579"
         inkscape:connector-curvature="0" />
      <path
         d="m 190.80267,222.45838 c -0.26459,0.5715 -0.75142,0.91017 -1.37584,0.91017 -0.93133,0 -1.13241,-0.89958 -1.16416,-1.83092 0.13758,0.0106 0.41275,0.0212 0.58208,0.0212 1.31233,0 2.38125,-0.34925 2.38125,-1.66158 0,-1.016 -0.71967,-1.55575 -1.73567,-1.55575 -1.72508,0 -2.45533,1.3335 -2.45533,3.048 0,1.60866 0.66675,2.794 2.286,2.794 0.80433,0 1.72508,-0.46567 1.72508,-1.27 0,-0.1905 -0.0635,-0.37042 -0.24341,-0.45509 z m -1.48167,-3.51366 c 0.52917,0 0.75142,0.48683 0.75142,1.016 0,0.79375 -0.53975,1.06891 -1.3335,1.06891 -0.14817,0 -0.30692,-0.0106 -0.47625,-0.0317 0.0212,-0.91016 0.21166,-2.05316 1.05833,-2.05316 z"
         style="text-align:center;text-anchor:middle;stroke-width:0.26458332"
         id="path11581"
         inkscape:connector-curvature="0" />
      <path
         d="m 192.27359,216.5423 v 6.67808 c 0,0.55034 0.254,0.889 0.81491,0.889 0.26459,0 0.56092,-0.10583 0.67734,-0.32808 -0.254,-0.13758 -0.32809,-0.39158 -0.32809,-0.6985 v -6.6675 z"
         style="text-align:center;text-anchor:middle;stroke-width:0.26458332"
         id="path11583"
         inkscape:connector-curvature="0" />
      <path
         d="m 195.51159,216.33063 c -0.4445,0 -0.80433,0.22225 -0.80433,0.67734 0,0.43391 0.32808,0.65616 0.77258,0.65616 0.45508,0 0.81492,-0.22225 0.81492,-0.67733 0,-0.43392 -0.32809,-0.65617 -0.78317,-0.65617 z m 0.55033,2.2225 h -1.16416 v 4.66725 c 0,0.55034 0.254,0.889 0.81491,0.889 0.26459,0 0.56092,-0.10583 0.67734,-0.32808 -0.254,-0.13758 -0.32809,-0.39158 -0.32809,-0.6985 z"
         style="text-align:center;text-anchor:middle;stroke-width:0.26458332"
         id="path11585"
         inkscape:connector-curvature="0" />
      <path
         d="m 197.50274,223.95063 h 1.16417 v -2.75166 c 0,-0.9525 0.127,-2.04259 1.0795,-2.04259 0.74083,0 0.80433,0.58209 0.80433,1.32292 v 2.74108 c 0,0.55034 0.254,0.889 0.81492,0.889 0.26458,0 0.56092,-0.10583 0.67733,-0.32808 -0.254,-0.13758 -0.32808,-0.39158 -0.32808,-0.6985 v -2.75167 c 0,-1.24883 -0.33867,-1.98966 -1.5875,-1.98966 -0.74083,0 -1.32292,0.34925 -1.59808,1.03716 l -0.0529,-0.9525 -0.97367,0.127 z"
         style="text-align:center;text-anchor:middle;stroke-width:0.26458332"
         id="path11587"
         inkscape:connector-curvature="0" />
      <path
         d="m 206.49163,222.45838 c -0.26458,0.5715 -0.75141,0.91017 -1.37583,0.91017 -0.93133,0 -1.13242,-0.89958 -1.16417,-1.83092 0.13759,0.0106 0.41275,0.0212 0.58209,0.0212 1.31233,0 2.38125,-0.34925 2.38125,-1.66158 0,-1.016 -0.71967,-1.55575 -1.73567,-1.55575 -1.72508,0 -2.45533,1.3335 -2.45533,3.048 0,1.60866 0.66675,2.794 2.286,2.794 0.80433,0 1.72508,-0.46567 1.72508,-1.27 0,-0.1905 -0.0635,-0.37042 -0.24342,-0.45509 z m -1.48166,-3.51366 c 0.52916,0 0.75141,0.48683 0.75141,1.016 0,0.79375 -0.53975,1.06891 -1.3335,1.06891 -0.14816,0 -0.30691,-0.0106 -0.47625,-0.0317 0.0212,-0.91016 0.21167,-2.05316 1.05834,-2.05316 z"
         style="text-align:center;text-anchor:middle;stroke-width:0.26458332"
         id="path11589"
         inkscape:connector-curvature="0" />
    </g>
    <path
       style="fill:none;fill-rule:nonzero;stroke:#000000;stroke-width:0.7706396;stroke-linecap:butt;stroke-linejoin:miter;stroke-miterlimit:4;stroke-dasharray:none;stroke-opacity:1;marker-end:url(#Arrow2Mend-5-7)"
       d="m 206.21269,97.93373 v 15.7212"
       id="path4108-9-2"
       inkscape:connector-curvature="0"
       inkscape:transform-center-x="-35.271442"
       inkscape:transform-center-y="-7.8372636" />
    <path
       style="fill:none;fill-rule:nonzero;stroke:#000000;stroke-width:0.84666669;stroke-linecap:butt;stroke-linejoin:miter;stroke-miterlimit:4;stroke-dasharray:none;stroke-opacity:1;marker-end:url(#Arrow2Mend-5-9-5)"
       d="m 214.1049,132.29213 13.41816,13.41816"
       id="path4108-9-0-2"
       inkscape:connector-curvature="0"
       inkscape:transform-center-x="-18.251512"
       inkscape:transform-center-y="-31.629836" />
    <path
       style="fill:none;fill-rule:nonzero;stroke:#000000;stroke-width:0.84666669;stroke-linecap:butt;stroke-linejoin:miter;stroke-miterlimit:4;stroke-dasharray:none;stroke-opacity:1;marker-end:url(#Arrow2Mend-5-9-2-10)"
       d="m 181.09182,184.71299 13.41816,13.41816"
       id="path4108-9-0-6-20"
       inkscape:connector-curvature="0"
       inkscape:transform-center-x="-18.251512"
       inkscape:transform-center-y="-31.629836" />
    <path
       style="fill:none;fill-rule:nonzero;stroke:#000000;stroke-width:0.84666669;stroke-linecap:butt;stroke-linejoin:miter;stroke-miterlimit:4;stroke-dasharray:none;stroke-opacity:1;marker-end:url(#Arrow2Mend-5-9-2-1-4)"
       d="m 230.60622,185.95129 -13.41816,13.41816"
       id="path4108-9-0-6-2-5"
       inkscape:connector-curvature="0"
       inkscape:transform-center-x="-31.629836"
       inkscape:transform-center-y="18.251514" />
    <path
       style="fill:none;fill-rule:nonzero;stroke:#000000;stroke-width:0.84666669;stroke-linecap:butt;stroke-linejoin:miter;stroke-miterlimit:4;stroke-dasharray:none;stroke-opacity:1;marker-end:url(#Arrow2Mend-5-9-2-1-1-9)"
       d="m 195.69679,133.12423 -13.41816,13.41816"
       id="path4108-9-0-6-2-9-5"
       inkscape:connector-curvature="0"
       inkscape:transform-center-x="-31.629836"
       inkscape:transform-center-y="18.251514" />
    <g
       aria-label="Ridge
α=0.5"
       style="font-style:normal;font-variant:normal;font-weight:normal;font-stretch:normal;font-size:10.58333302px;line-height:1.25;font-family:sansita;-inkscape-font-specification:sansita;letter-spacing:0px;word-spacing:0px;fill:#000000;fill-opacity:1;stroke:none;stroke-width:0.26458332"
       id="text11484"
       transform="translate(20.579754,-1.0690781)">
      <path
         d="m 149.19119,160.70123 c 0,-1.43933 -1.02658,-1.95792 -2.50825,-1.95792 -0.635,0 -1.36525,0.0423 -1.98967,0.0847 v 6.94267 h 1.23825 v -6.23359 c 0.21167,-0.0317 0.46567,-0.0529 0.67734,-0.0529 0.889,0 1.31233,0.41275 1.31233,1.25941 0,1.02659 -0.49742,1.47109 -1.55575,1.47109 0,0.0741 0.0212,0.13758 0.0635,0.21166 l 1.88383,3.34434 h 1.35467 l -1.83092,-3.15384 c 0.83609,-0.23283 1.35467,-0.9525 1.35467,-1.91558 z"
         style="stroke-width:0.26458332"
         id="path11592"
         inkscape:connector-curvature="0" />
      <path
         d="m 150.97184,158.15065 c -0.4445,0 -0.80434,0.22225 -0.80434,0.67733 0,0.43392 0.32809,0.65617 0.77259,0.65617 0.45508,0 0.81491,-0.22225 0.81491,-0.67734 0,-0.43391 -0.32808,-0.65616 -0.78316,-0.65616 z m 0.55033,2.2225 H 150.358 v 4.66725 c 0,0.55033 0.254,0.889 0.81492,0.889 0.26458,0 0.56092,-0.10584 0.67733,-0.32809 -0.254,-0.13758 -0.32808,-0.39158 -0.32808,-0.6985 z"
         style="stroke-width:0.26458332"
         id="path11594"
         inkscape:connector-curvature="0" />
      <path
         d="m 157.05874,164.90281 v -6.6675 l -1.16417,0.127 v 1.93675 c -0.28575,-0.0952 -0.62441,-0.13758 -0.92075,-0.13758 -1.69333,0 -2.37066,1.21708 -2.37066,2.89983 0,1.54517 0.508,2.94217 2.05316,2.94217 0.53975,0 1.11125,-0.23283 1.35467,-0.71967 0.0529,0.40217 0.34925,0.64559 0.75142,0.64559 0.26458,0 0.508,-0.10584 0.62441,-0.32809 -0.254,-0.13758 -0.32808,-0.39158 -0.32808,-0.6985 z m -1.16417,-3.77825 v 2.93159 c 0,0.65616 -0.27516,1.23825 -0.92075,1.23825 -0.9525,0 -1.10066,-1.3335 -1.10066,-2.286 0,-0.97367 0.0741,-2.21192 1.04775,-2.21192 0.34925,0 0.67733,0.127 0.97366,0.32808 z"
         style="stroke-width:0.26458332"
         id="path11596"
         inkscape:connector-curvature="0" />
      <path
         d="m 160.45963,167.2629 c -0.48684,0 -0.74084,-0.24342 -0.74084,-0.73025 0,-0.15875 0.0317,-0.3175 0.0847,-0.47625 -0.10583,-0.0847 -0.30692,-0.11642 -0.43392,-0.11642 -0.49741,0 -0.8255,0.24342 -0.8255,0.74083 0,0.889 0.93134,1.2065 1.83092,1.2065 1.87325,0 2.26483,-1.31233 2.26483,-3.18558 v -4.45558 l -1.03716,0.11641 c -0.33867,-0.127 -0.6985,-0.20108 -1.06892,-0.20108 -1.55575,0 -2.30717,0.97367 -2.30717,2.52942 0,1.4605 0.53975,2.57175 2.00025,2.57175 0.49742,0 1.00542,-0.17992 1.29117,-0.59267 v 0.28575 c 0,1.04775 -0.0106,2.30717 -1.05833,2.30717 z m 1.016,-6.12775 v 2.18016 c 0,0.66675 -0.27517,1.23825 -0.93134,1.23825 -0.93133,0 -1.06891,-0.98425 -1.06891,-1.91558 0,-0.86783 0.14816,-1.8415 1.016,-1.8415 0.34925,0 0.68791,0.13758 0.98425,0.33867 z"
         style="stroke-width:0.26458332"
         id="path11598"
         inkscape:connector-curvature="0" />
      <path
         d="m 167.45025,164.2784 c -0.26458,0.5715 -0.75142,0.91016 -1.37583,0.91016 -0.93134,0 -1.13242,-0.89958 -1.16417,-1.83091 0.13758,0.0106 0.41275,0.0212 0.58208,0.0212 1.31234,0 2.38125,-0.34925 2.38125,-1.66158 0,-1.016 -0.71966,-1.55575 -1.73566,-1.55575 -1.72509,0 -2.45534,1.3335 -2.45534,3.048 0,1.60867 0.66675,2.794 2.286,2.794 0.80434,0 1.72509,-0.46567 1.72509,-1.27 0,-0.1905 -0.0635,-0.37042 -0.24342,-0.45508 z m -1.48167,-3.51367 c 0.52917,0 0.75142,0.48683 0.75142,1.016 0,0.79375 -0.53975,1.06892 -1.3335,1.06892 -0.14817,0 -0.30692,-0.0106 -0.47625,-0.0317 0.0212,-0.91017 0.21167,-2.05317 1.05833,-2.05317 z"
         style="stroke-width:0.26458332"
         id="path11600"
         inkscape:connector-curvature="0" />
      <path
         d="m 148.4301,176.30747 -0.22738,-1.19373 q -0.23254,-1.22473 -1.15238,-1.22473 -0.69247,0 -1.00769,0.56844 -0.39791,0.71314 -0.39791,1.65365 0,1.13688 0.38757,1.67948 0.39274,0.55294 1.01803,0.55294 0.69246,0 1.06453,-1.10071 z m 0.53227,-1.5813 0.51159,-1.51412 h 0.8475 l -1.05937,3.13676 0.20671,1.13171 q 0.0465,0.25322 0.22737,0.46509 0.21188,0.24805 0.37724,0.24805 h 0.45475 v 0.80615 h -0.56844 q -0.48576,0 -0.91984,-0.43408 -0.21187,-0.21704 -0.29972,-0.67179 -0.23771,0.5736 -0.72347,1.02319 -0.22738,0.21187 -0.96635,0.21187 -1.2144,0 -1.80351,-0.78548 -0.60461,-0.81132 -0.60461,-2.23242 0,-1.51929 0.65629,-2.23242 0.72864,-0.79582 1.75183,-0.79582 1.60714,0 1.91203,1.64331 z"
         style="stroke-width:0.26458332"
         id="path11602"
         inkscape:connector-curvature="0" />
      <path
         d="m 151.80693,176.20581 h 3.76766 c 0.32809,0 0.508,-0.20108 0.508,-0.52917 0,-0.13758 -0.0423,-0.254 -0.0953,-0.37041 h -3.76766 c -0.32809,0 -0.508,0.20108 -0.508,0.52916 0,0.13759 0.0423,0.254 0.0952,0.37042 z m 0,1.70392 h 3.76766 c 0.32809,0 0.508,-0.20109 0.508,-0.52917 0,-0.13758 -0.0423,-0.254 -0.0953,-0.37042 h -3.76766 c -0.32809,0 -0.508,0.20109 -0.508,0.52917 0,0.13758 0.0423,0.254 0.0952,0.37042 z"
         style="stroke-width:0.26458332"
         id="path11604"
         inkscape:connector-curvature="0" />
      <path
         d="m 159.62818,171.80314 c -1.905,0 -2.46592,1.83092 -2.46592,3.73592 0,1.905 0.56092,3.69358 2.46592,3.69358 1.905,0 2.46591,-1.91558 2.46591,-3.82058 0,-1.905 -0.56091,-3.60892 -2.46591,-3.60892 z m 0,6.68867 c -1.02659,0 -1.13242,-1.524 -1.13242,-3.00567 0,-1.34408 0.10583,-2.94216 1.13242,-2.94216 1.016,0 1.13241,1.59808 1.13241,2.94216 0,1.48167 -0.10583,3.00567 -1.13241,3.00567 z"
         style="stroke-width:0.26458332"
         id="path11606"
         inkscape:connector-curvature="0" />
      <path
         d="m 163.77701,177.87798 c -0.4445,0 -0.80434,0.22225 -0.80434,0.67733 0,0.43392 0.32809,0.65617 0.77259,0.65617 0.45508,0 0.81491,-0.22225 0.81491,-0.67734 0,-0.43391 -0.32808,-0.65616 -0.78316,-0.65616 z"
         style="stroke-width:0.26458332"
         id="path11608"
         inkscape:connector-curvature="0" />
      <path
         d="m 169.69557,172.01481 h -3.75708 l -0.27517,3.69358 c 0.4445,-0.0847 0.92075,-0.14816 1.34408,-0.14816 1.09009,0 1.87325,0.35983 1.87325,1.32291 0,0.86784 -0.51858,1.37584 -1.40758,1.37584 -0.92075,0 -1.54517,-0.30692 -1.88383,-0.97367 -0.20109,0.0952 -0.26459,0.32808 -0.26459,0.55033 0,0.98425 1.00542,1.397 2.19075,1.397 1.54517,0 2.69875,-0.97366 2.69875,-2.3495 0,-1.524 -0.96308,-2.14841 -2.58233,-2.14841 -0.28575,0 -0.67733,0.0212 -0.96308,0.0529 l 0.127,-1.70391 h 2.97391 z"
         style="stroke-width:0.26458332"
         id="path11610"
         inkscape:connector-curvature="0" />
    </g>
    <text
       xml:space="preserve"
       style="font-style:normal;font-variant:normal;font-weight:normal;font-stretch:normal;font-size:10.58333302px;line-height:1.25;font-family:sansita;-inkscape-font-specification:sansita;letter-spacing:0px;word-spacing:0px;fill:#000000;fill-opacity:1;stroke:none;stroke-width:0.26458332"
       x="212.47926"
       y="166.03792"
       id="text11905"><tspan
         sodipodi:role="line"
         id="tspan11903"
         x="212.47926"
         y="166.03792"
         style="stroke-width:0.26458332">Ridge</tspan><tspan
         sodipodi:role="line"
         x="212.47926"
         y="179.26709"
         style="stroke-width:0.26458332"
         id="tspan11907">α=0.05</tspan></text>
    <g
       transform="translate(-113.32227,-2.5813848)"
       aria-label="Choose best pipeline"
       style="font-style:normal;font-variant:normal;font-weight:normal;font-stretch:normal;font-size:10.58333302px;line-height:1.25;font-family:sansita;-inkscape-font-specification:sansita;text-align:center;letter-spacing:0px;word-spacing:0px;text-anchor:middle;fill:#000000;fill-opacity:1;stroke:none;stroke-width:0.26458332"
       id="text879-6-8">
      <path
         inkscape:connector-curvature="0"
         d="m 167.5434,204.26563 c 0.60325,0 0.85725,0.35984 0.85725,0.96309 0,0.14816 -0.0318,0.381 -0.0847,0.52916 0.13758,0.127 0.37042,0.16934 0.55033,0.16934 0.49742,0 0.81492,-0.35984 0.81492,-0.85725 0,-1.143 -0.89958,-1.54517 -2.04258,-1.54517 -2.06375,0 -2.75167,1.68275 -2.75167,3.73592 0,2.06375 0.60325,3.69358 2.65642,3.69358 0.99483,0 2.02141,-0.508 2.02141,-1.50283 0,-0.3175 -0.10583,-0.52917 -0.41275,-0.62442 -0.22225,0.70908 -0.75141,1.15358 -1.50283,1.15358 -1.30175,0 -1.42875,-1.47108 -1.42875,-2.77283 0,-1.21708 0.10583,-2.94217 1.32292,-2.94217 z"
         style="text-align:center;text-anchor:middle;stroke-width:0.26458332"
         id="path11555-8" />
      <path
         inkscape:connector-curvature="0"
         d="m 171.84784,203.18613 -1.16417,0.127 v 7.40834 h 1.16417 v -2.75167 c 0,-0.9525 0.127,-2.04258 1.0795,-2.04258 0.74083,0 0.80433,0.58208 0.80433,1.32291 v 2.74109 c 0,0.55033 0.254,0.889 0.81492,0.889 0.26458,0 0.56091,-0.10584 0.67733,-0.32809 -0.254,-0.13758 -0.32808,-0.39158 -0.32808,-0.6985 v -2.75166 c 0,-1.24884 -0.33867,-1.98967 -1.5875,-1.98967 -0.70909,0 -1.27,0.3175 -1.56634,0.96308 0.0741,-0.381 0.10584,-0.98425 0.10584,-1.69333 z"
         style="text-align:center;text-anchor:middle;stroke-width:0.26458332"
         id="path11557-6" />
      <path
         inkscape:connector-curvature="0"
         d="m 178.23223,205.1123 c -1.651,0 -2.32833,1.30175 -2.32833,2.94217 0,1.69333 0.62442,2.89983 2.32833,2.89983 1.7145,0 2.31775,-1.29117 2.31775,-3.00567 0,-1.64041 -0.67733,-2.83633 -2.31775,-2.83633 z m 0,5.207 c -0.99483,0 -1.05833,-1.32292 -1.05833,-2.31775 0,-0.93133 0.127,-2.25425 1.05833,-2.25425 0.93134,0 1.04775,1.31233 1.04775,2.25425 0,0.99483 -0.0635,2.31775 -1.04775,2.31775 z"
         style="text-align:center;text-anchor:middle;stroke-width:0.26458332"
         id="path11559-8" />
      <path
         inkscape:connector-curvature="0"
         d="m 183.56524,205.1123 c -1.651,0 -2.32833,1.30175 -2.32833,2.94217 0,1.69333 0.62441,2.89983 2.32833,2.89983 1.7145,0 2.31775,-1.29117 2.31775,-3.00567 0,-1.64041 -0.67733,-2.83633 -2.31775,-2.83633 z m 0,5.207 c -0.99483,0 -1.05833,-1.32292 -1.05833,-2.31775 0,-0.93133 0.127,-2.25425 1.05833,-2.25425 0.93133,0 1.04775,1.31233 1.04775,2.25425 0,0.99483 -0.0635,2.31775 -1.04775,2.31775 z"
         style="text-align:center;text-anchor:middle;stroke-width:0.26458332"
         id="path11561-3" />
      <path
         inkscape:connector-curvature="0"
         d="m 188.65483,205.67322 c 0.4445,0 0.67733,0.28575 0.67733,0.74083 0,0.15875 -0.0317,0.3175 -0.0847,0.47625 0.10583,0.0847 0.30691,0.11642 0.43391,0.11642 0.49742,0 0.8255,-0.24342 0.8255,-0.74084 0,-0.889 -0.8255,-1.15358 -1.7145,-1.15358 -1.00541,0 -1.95791,0.48683 -1.95791,1.48167 0,1.778 2.57175,1.651 2.57175,2.9845 0,0.52916 -0.27517,0.81491 -0.80434,0.81491 -0.46566,0 -0.77258,-0.26458 -0.77258,-0.73025 0,-0.15875 0.0317,-0.3175 0.0847,-0.47625 -0.10584,-0.0847 -0.30692,-0.11641 -0.43392,-0.11641 -0.49742,0 -0.8255,0.24341 -0.8255,0.74083 0,0.889 0.93133,1.143 1.82033,1.143 1.13242,0 2.04259,-0.55033 2.04259,-1.67217 0,-1.778 -2.57175,-1.64041 -2.57175,-2.97391 0,-0.41275 0.29633,-0.635 0.70908,-0.635 z"
         style="text-align:center;text-anchor:middle;stroke-width:0.26458332"
         id="path11563-8" />
      <path
         inkscape:connector-curvature="0"
         d="m 195.0298,209.22922 c -0.26458,0.5715 -0.75142,0.91016 -1.37583,0.91016 -0.93134,0 -1.13242,-0.89958 -1.16417,-1.83091 0.13758,0.0106 0.41275,0.0212 0.58208,0.0212 1.31234,0 2.38125,-0.34925 2.38125,-1.66158 0,-1.016 -0.71966,-1.55575 -1.73566,-1.55575 -1.72509,0 -2.45534,1.3335 -2.45534,3.048 0,1.60867 0.66675,2.794 2.286,2.794 0.80434,0 1.72509,-0.46567 1.72509,-1.27 0,-0.1905 -0.0635,-0.37042 -0.24342,-0.45508 z m -1.48167,-3.51367 c 0.52917,0 0.75142,0.48683 0.75142,1.016 0,0.79375 -0.53975,1.06892 -1.3335,1.06892 -0.14817,0 -0.30692,-0.0106 -0.47625,-0.0317 0.0212,-0.91017 0.21167,-2.05317 1.05833,-2.05317 z"
         style="text-align:center;text-anchor:middle;stroke-width:0.26458332"
         id="path11565-3" />
      <path
         inkscape:connector-curvature="0"
         d="m 199.5464,203.18613 -1.16416,0.127 v 7.14375 c 0.58208,0.3175 1.41816,0.49742 2.0955,0.49742 1.69333,0 2.37066,-1.32292 2.37066,-3.00567 0,-1.44991 -0.46566,-2.83633 -1.91558,-2.83633 -0.64558,0 -1.22767,0.37042 -1.49225,0.96308 0.0741,-0.381 0.10583,-0.98425 0.10583,-1.69333 z m 0,6.81567 v -2.032 c 0,-0.92075 0.11642,-2.04258 1.04775,-2.04258 0.889,0 0.98425,1.17475 0.98425,2.07433 0,0.97367 -0.0741,2.31775 -1.03716,2.31775 -0.34925,0 -0.6985,-0.11642 -0.99484,-0.3175 z"
         style="text-align:center;text-anchor:middle;stroke-width:0.26458332"
         id="path11567-3" />
      <path
         inkscape:connector-curvature="0"
         d="m 207.28745,209.22922 c -0.26459,0.5715 -0.75142,0.91016 -1.37584,0.91016 -0.93133,0 -1.13241,-0.89958 -1.16416,-1.83091 0.13758,0.0106 0.41275,0.0212 0.58208,0.0212 1.31233,0 2.38125,-0.34925 2.38125,-1.66158 0,-1.016 -0.71967,-1.55575 -1.73567,-1.55575 -1.72508,0 -2.45533,1.3335 -2.45533,3.048 0,1.60867 0.66675,2.794 2.286,2.794 0.80433,0 1.72508,-0.46567 1.72508,-1.27 0,-0.1905 -0.0635,-0.37042 -0.24341,-0.45508 z m -1.48167,-3.51367 c 0.52917,0 0.75142,0.48683 0.75142,1.016 0,0.79375 -0.53975,1.06892 -1.3335,1.06892 -0.14817,0 -0.30692,-0.0106 -0.47625,-0.0317 0.0212,-0.91017 0.21166,-2.05317 1.05833,-2.05317 z"
         style="text-align:center;text-anchor:middle;stroke-width:0.26458332"
         id="path11569-3" />
      <path
         inkscape:connector-curvature="0"
         d="m 210.46228,205.67322 c 0.4445,0 0.67734,0.28575 0.67734,0.74083 0,0.15875 -0.0318,0.3175 -0.0847,0.47625 0.10583,0.0847 0.30692,0.11642 0.43392,0.11642 0.49741,0 0.8255,-0.24342 0.8255,-0.74084 0,-0.889 -0.8255,-1.15358 -1.7145,-1.15358 -1.00542,0 -1.95792,0.48683 -1.95792,1.48167 0,1.778 2.57175,1.651 2.57175,2.9845 0,0.52916 -0.27517,0.81491 -0.80433,0.81491 -0.46567,0 -0.77259,-0.26458 -0.77259,-0.73025 0,-0.15875 0.0318,-0.3175 0.0847,-0.47625 -0.10583,-0.0847 -0.30692,-0.11641 -0.43392,-0.11641 -0.49741,0 -0.8255,0.24341 -0.8255,0.74083 0,0.889 0.93134,1.143 1.82034,1.143 1.13241,0 2.04258,-0.55033 2.04258,-1.67217 0,-1.778 -2.57175,-1.64041 -2.57175,-2.97391 0,-0.41275 0.29633,-0.635 0.70908,-0.635 z"
         style="text-align:center;text-anchor:middle;stroke-width:0.26458332"
         id="path11571-8" />
      <path
         inkscape:connector-curvature="0"
         d="m 213.53525,205.80022 v 4.10633 c 0,0.61383 0.254,0.97367 0.85725,0.97367 0.381,0 0.73025,-0.21167 0.80434,-0.55034 -0.34925,-0.0529 -0.48684,-0.26458 -0.48684,-0.67733 v -3.85233 h 0.99484 v -0.47625 h -0.97367 v -1.04775 h -0.32808 c -0.40217,0.51858 -1.00542,0.9525 -1.62984,1.2065 l 0.0106,0.3175 z"
         style="text-align:center;text-anchor:middle;stroke-width:0.26458332"
         id="path11573-0" />
      <path
         inkscape:connector-curvature="0"
         d="m 176.388,218.34147 c -0.75141,0 -1.29116,0.33866 -1.5875,1.03716 l -0.0529,-0.9525 -0.97367,0.127 v 7.44009 l 1.16417,-0.127 v -1.82034 c 0.28575,0.0952 0.62441,0.13759 0.92075,0.13759 1.69333,0 2.37066,-1.32292 2.37066,-3.00567 0,-1.43933 -0.40216,-2.83633 -1.8415,-2.83633 z m -0.40216,0.81491 c 0.92075,0 0.97366,1.143 0.97366,2.07434 0,0.97366 -0.0741,2.31775 -1.03716,2.31775 -0.34925,0 -0.68792,-0.127 -0.98425,-0.32809 v -2.51883 c 0,-0.79375 0.254,-1.54517 1.04775,-1.54517 z"
         style="text-align:center;text-anchor:middle;stroke-width:0.26458332"
         id="path11575-4" />
      <path
         inkscape:connector-curvature="0"
         d="m 179.86397,216.33063 c -0.4445,0 -0.80434,0.22225 -0.80434,0.67734 0,0.43391 0.32809,0.65616 0.77259,0.65616 0.45508,0 0.81491,-0.22225 0.81491,-0.67733 0,-0.43392 -0.32808,-0.65617 -0.78316,-0.65617 z m 0.55033,2.2225 h -1.16417 v 4.66725 c 0,0.55034 0.254,0.889 0.81492,0.889 0.26458,0 0.56092,-0.10583 0.67733,-0.32808 -0.254,-0.13758 -0.32808,-0.39158 -0.32808,-0.6985 z"
         style="text-align:center;text-anchor:middle;stroke-width:0.26458332"
         id="path11577-7" />
      <path
         inkscape:connector-curvature="0"
         d="m 184.51154,218.34147 c -0.75142,0 -1.29117,0.33866 -1.5875,1.03716 l -0.0529,-0.9525 -0.97366,0.127 v 7.44009 l 1.16416,-0.127 v -1.82034 c 0.28575,0.0952 0.62442,0.13759 0.92075,0.13759 1.69334,0 2.37067,-1.32292 2.37067,-3.00567 0,-1.43933 -0.40217,-2.83633 -1.8415,-2.83633 z m -0.40217,0.81491 c 0.92075,0 0.97367,1.143 0.97367,2.07434 0,0.97366 -0.0741,2.31775 -1.03717,2.31775 -0.34925,0 -0.68791,-0.127 -0.98425,-0.32809 v -2.51883 c 0,-0.79375 0.254,-1.54517 1.04775,-1.54517 z"
         style="text-align:center;text-anchor:middle;stroke-width:0.26458332"
         id="path11579-6" />
      <path
         inkscape:connector-curvature="0"
         d="m 190.80267,222.45838 c -0.26459,0.5715 -0.75142,0.91017 -1.37584,0.91017 -0.93133,0 -1.13241,-0.89958 -1.16416,-1.83092 0.13758,0.0106 0.41275,0.0212 0.58208,0.0212 1.31233,0 2.38125,-0.34925 2.38125,-1.66158 0,-1.016 -0.71967,-1.55575 -1.73567,-1.55575 -1.72508,0 -2.45533,1.3335 -2.45533,3.048 0,1.60866 0.66675,2.794 2.286,2.794 0.80433,0 1.72508,-0.46567 1.72508,-1.27 0,-0.1905 -0.0635,-0.37042 -0.24341,-0.45509 z m -1.48167,-3.51366 c 0.52917,0 0.75142,0.48683 0.75142,1.016 0,0.79375 -0.53975,1.06891 -1.3335,1.06891 -0.14817,0 -0.30692,-0.0106 -0.47625,-0.0317 0.0212,-0.91016 0.21166,-2.05316 1.05833,-2.05316 z"
         style="text-align:center;text-anchor:middle;stroke-width:0.26458332"
         id="path11581-8" />
      <path
         inkscape:connector-curvature="0"
         d="m 192.27359,216.5423 v 6.67808 c 0,0.55034 0.254,0.889 0.81491,0.889 0.26459,0 0.56092,-0.10583 0.67734,-0.32808 -0.254,-0.13758 -0.32809,-0.39158 -0.32809,-0.6985 v -6.6675 z"
         style="text-align:center;text-anchor:middle;stroke-width:0.26458332"
         id="path11583-9" />
      <path
         inkscape:connector-curvature="0"
         d="m 195.51159,216.33063 c -0.4445,0 -0.80433,0.22225 -0.80433,0.67734 0,0.43391 0.32808,0.65616 0.77258,0.65616 0.45508,0 0.81492,-0.22225 0.81492,-0.67733 0,-0.43392 -0.32809,-0.65617 -0.78317,-0.65617 z m 0.55033,2.2225 h -1.16416 v 4.66725 c 0,0.55034 0.254,0.889 0.81491,0.889 0.26459,0 0.56092,-0.10583 0.67734,-0.32808 -0.254,-0.13758 -0.32809,-0.39158 -0.32809,-0.6985 z"
         style="text-align:center;text-anchor:middle;stroke-width:0.26458332"
         id="path11585-0" />
      <path
         inkscape:connector-curvature="0"
         d="m 197.50274,223.95063 h 1.16417 v -2.75166 c 0,-0.9525 0.127,-2.04259 1.0795,-2.04259 0.74083,0 0.80433,0.58209 0.80433,1.32292 v 2.74108 c 0,0.55034 0.254,0.889 0.81492,0.889 0.26458,0 0.56092,-0.10583 0.67733,-0.32808 -0.254,-0.13758 -0.32808,-0.39158 -0.32808,-0.6985 v -2.75167 c 0,-1.24883 -0.33867,-1.98966 -1.5875,-1.98966 -0.74083,0 -1.32292,0.34925 -1.59808,1.03716 l -0.0529,-0.9525 -0.97367,0.127 z"
         style="text-align:center;text-anchor:middle;stroke-width:0.26458332"
         id="path11587-6" />
      <path
         inkscape:connector-curvature="0"
         d="m 206.49163,222.45838 c -0.26458,0.5715 -0.75141,0.91017 -1.37583,0.91017 -0.93133,0 -1.13242,-0.89958 -1.16417,-1.83092 0.13759,0.0106 0.41275,0.0212 0.58209,0.0212 1.31233,0 2.38125,-0.34925 2.38125,-1.66158 0,-1.016 -0.71967,-1.55575 -1.73567,-1.55575 -1.72508,0 -2.45533,1.3335 -2.45533,3.048 0,1.60866 0.66675,2.794 2.286,2.794 0.80433,0 1.72508,-0.46567 1.72508,-1.27 0,-0.1905 -0.0635,-0.37042 -0.24342,-0.45509 z m -1.48166,-3.51366 c 0.52916,0 0.75141,0.48683 0.75141,1.016 0,0.79375 -0.53975,1.06891 -1.3335,1.06891 -0.14816,0 -0.30691,-0.0106 -0.47625,-0.0317 0.0212,-0.91016 0.21167,-2.05316 1.05834,-2.05316 z"
         style="text-align:center;text-anchor:middle;stroke-width:0.26458332"
         id="path11589-8" />
    </g>
    <ellipse
       style="opacity:1;fill:none;fill-opacity:1;fill-rule:nonzero;stroke:#000000;stroke-width:0.84666669;stroke-linecap:round;stroke-linejoin:round;stroke-miterlimit:4;stroke-dasharray:none;stroke-dashoffset:0;stroke-opacity:1;paint-order:stroke markers fill"
       id="path13067"
       cx="42.558075"
       cy="123.76263"
       rx="16.83798"
       ry="6.8153729" />
    <ellipse
       style="opacity:1;fill:none;fill-opacity:1;fill-rule:nonzero;stroke:#000000;stroke-width:0.84666669;stroke-linecap:round;stroke-linejoin:round;stroke-miterlimit:4;stroke-dasharray:none;stroke-dashoffset:0;stroke-opacity:1;paint-order:stroke markers fill"
       id="path13067-7"
       cx="100.82283"
       cy="123.62899"
       rx="16.83798"
       ry="6.8153729" />
    <ellipse
       style="opacity:1;fill:none;fill-opacity:1;fill-rule:nonzero;stroke:#000000;stroke-width:0.84666669;stroke-linecap:round;stroke-linejoin:round;stroke-miterlimit:4;stroke-dasharray:none;stroke-dashoffset:0;stroke-opacity:1;paint-order:stroke markers fill"
       id="path13067-9"
       cx="205.32523"
       cy="122.02537"
       rx="16.83798"
       ry="6.8153729" />
    <ellipse
       style="opacity:1;fill:none;fill-opacity:1;fill-rule:nonzero;stroke:#000000;stroke-width:0.84666669;stroke-linecap:round;stroke-linejoin:round;stroke-miterlimit:4;stroke-dasharray:none;stroke-dashoffset:0;stroke-opacity:1;paint-order:stroke markers fill"
       id="path13090"
       cx="44.428959"
       cy="167.4612"
       rx="20.312483"
       ry="14.432554" />
    <ellipse
       style="opacity:1;fill:none;fill-opacity:1;fill-rule:nonzero;stroke:#000000;stroke-width:0.84666669;stroke-linecap:round;stroke-linejoin:round;stroke-miterlimit:4;stroke-dasharray:none;stroke-dashoffset:0;stroke-opacity:1;paint-order:stroke markers fill"
       id="path13090-0"
       cx="177.79645"
       cy="167.99573"
       rx="20.312483"
       ry="14.432554" />
    <ellipse
       style="opacity:1;fill:none;fill-opacity:1;fill-rule:nonzero;stroke:#000000;stroke-width:0.84666669;stroke-linecap:round;stroke-linejoin:round;stroke-miterlimit:4;stroke-dasharray:none;stroke-dashoffset:0;stroke-opacity:1;paint-order:stroke markers fill"
       id="path13118"
       cx="104.96551"
       cy="167.06029"
       rx="23.118814"
       ry="15.635267" />
    <ellipse
       style="opacity:1;fill:none;fill-opacity:1;fill-rule:nonzero;stroke:#000000;stroke-width:0.84666669;stroke-linecap:round;stroke-linejoin:round;stroke-miterlimit:4;stroke-dasharray:none;stroke-dashoffset:0;stroke-opacity:1;paint-order:stroke markers fill"
       id="path13118-3"
       cx="226.43951"
       cy="169.0648"
       rx="23.118814"
       ry="15.635268" />
  </g>
</svg>
